<?xml version="1.0" encoding="UTF-8"?>
<svg id="Layer_2" data-name="Layer 2" xmlns="http://www.w3.org/2000/svg" viewBox="0 0 48.264 32.726">
  <g id="game_note_txt">
    <g id="game_note_txt_don">
      <path d="M9.935,32.166H0V1.584l11.013,.536-.193,2.361,2.385-2.038,.441,.372,3.367-2.816,2.008,1.722c1.285,1.102,3.013,2.81,4.004,4.298l1.563,2.344-6.417,5.311-.249-.369-.339,.287c.433,.215,.851,.427,1.244,.634l2.877,1.512-5.139,8.907-2.708-1.565c-1.038-.6-2.438-1.321-3.921-2.029v11.113Z" fill="#262626"/>
      <path d="M23.6,32.726l-6.497-9.136,4.13-1.275c8.361-2.581,14.041-7.307,16.882-14.044l1.616-3.832,3.231,2.619c.803,.651,1.833,1.226,2.736,1.713l2.566,1.387-1.206,2.655c-3.695,8.134-10.516,14.279-19.768,17.827-.369,.441-.826,.797-1.349,1.031l-2.341,1.055Zm6.77-14.832l-2.771-1.848c-1.658-1.106-4.608-2.513-7.175-3.422l-3.445-1.22L21.565,2.936l2.451,.76c3.12,.967,6.676,2.576,8.849,4.003l2.467,1.622-4.962,8.574Z" fill="#262626"/>
      <path d="M7.123,29.354H2.813V4.537l5.161,.251-.026,.322c-.022,.275-.164,.73-.824,.916v6.634l.262-.355,.219,.077c2.96,1.049,7.13,2.872,9.914,4.336l.288,.151-2.271,3.935-.271-.157c-2.07-1.197-5.357-2.781-8.141-3.93v12.637ZM15,12.094l-.195-.286c-.686-1.003-2.245-2.814-3.303-3.737l-.273-.238,1.99-1.7,.203,.17c1.105,.93,2.638,2.599,3.492,3.798l.166,.234-2.079,1.758Zm3.765-2.56l-.193-.285c-.635-.939-2.181-2.7-3.3-3.651l-.282-.24,2-1.672,.201,.172c1.177,1.009,2.714,2.551,3.494,3.723l.156,.234-2.076,1.719Z" fill="#fff"/>
      <path d="M24.552,29.212l-2.903-4.082,.413-.128c9.193-2.838,15.466-8.099,18.645-15.638l.162-.383,.322,.262c.991,.804,2.156,1.455,3.17,2.003l.256,.139-.121,.266c-3.499,7.701-10.104,13.472-19.109,16.694-.092,.301-.286,.62-.602,.762l-.234,.106Zm4.885-15.32l-.277-.185c-1.859-1.24-4.993-2.74-7.797-3.734l-.345-.122,1.92-3.546,.245,.076c2.893,.897,6.163,2.371,8.137,3.668l.247,.162-2.13,3.68Z" fill="#fff"/>
    </g>
  </g>
</svg>