<?xml version="1.0" encoding="UTF-8"?>
<svg id="Layer_2" data-name="Layer 2" xmlns="http://www.w3.org/2000/svg" viewBox="0 0 31.801 31.482">
  <g id="game_note_txt">
    <g id="game_note_txt_ka">
      <path d="M8.223,31.482l-1.995-1.906c-.426-.408-1.556-1.268-2.269-1.69l-3.959-2.35,3.646-2.812c2.46-1.897,4.272-4.34,5.485-7.409H3.502V5.818h7.648c.038-.585,.07-1.199,.104-1.889l.204-3.929,11.151,.951-.613,3.38c-.103,.563-.323,1.075-.643,1.516l2.777-.035,1.101-.458,6.57,2.285-.975,2.927c-.061,.181-.134,.358-.22,.527-.565,11.023-1.814,14.202-2.714,15.634-1.504,2.365-3.916,3.66-6.798,3.66-1.62,0-3.496-.213-5.424-.615l-2.56-.535,.062-2.168c-.834,.923-1.766,1.819-2.811,2.67l-2.139,1.743Zm9.342-11.113c.791,.152,1.552,.261,2.097,.322,.236-.958,.548-2.767,.771-5.377h-1.011c-.45,1.582-1.042,3.3-1.858,5.055Z" fill="#262626"/>
      <path d="M8.372,27.733l-.2-.19c-.627-.6-1.925-1.57-2.777-2.075l-.396-.235,.365-.281c3.856-2.974,6.332-7.05,7.557-12.449H6.315v-3.871h7.384c.212-1.552,.28-2.889,.364-4.56l.052-1.022,5.175,.441-.061,.338c-.043,.234-.211,.628-.842,.806-.04,.43-.073,.83-.105,1.216-.082,.969-.153,1.82-.292,2.809h6.617l.713-.297,2.935,1.021-.098,.293c-.065,.192-.176,.364-.322,.497-.376,8.032-1.179,13.236-2.323,15.056-.977,1.535-2.504,2.346-4.418,2.346-1.429,0-3.107-.192-4.849-.556l-.256-.053,.007-.262c.026-.889-.104-2.433-.244-3.412l-.065-.451,.443,.102c1.688,.387,3.628,.624,4.276,.624,.697,0,1.176-.152,1.563-.927,.536-1.071,1.216-4.689,1.466-10.137h-6.191c-1.604,6.838-4.281,11.489-8.658,15.057l-.214,.174Z" fill="#fff"/>
    </g>
  </g>
</svg>