<?xml version="1.0" encoding="UTF-8"?>
<svg id="Layer_2" data-name="Layer 2" xmlns="http://www.w3.org/2000/svg" viewBox="0 0 157.5 105">
  <g id="renda_back">
    <path id="Circle_Outter" data-name="Circle Outter" d="M52.5,105c-14.497,0-27.622-5.876-37.123-15.377C5.876,80.122,0,66.997,0,52.5S5.876,24.878,15.377,15.377,38.003,0,52.5,0h52.5c14.497,0,27.622,5.876,37.123,15.377s15.377,22.626,15.377,37.123-5.876,27.622-15.377,37.123c-9.501,9.501-22.626,15.377-37.123,15.377H52.5Z" fill="#1d1d1d"/>
    <path id="Circle_Inner" data-name="Circle Inner" d="M52.5,100.5c-13.255,0-25.255-5.373-33.941-14.059S4.5,65.755,4.5,52.5s5.373-25.255,14.059-33.941S39.245,4.5,52.5,4.5h52.5c13.255,0,25.255,5.373,33.941,14.059s14.059,20.686,14.059,33.941-5.373,25.255-14.059,33.941-20.686,14.059-33.941,14.059H52.5Z" fill="#f4b713"/>
  </g>
</svg>