<?xml version="1.0" encoding="UTF-8"?>
<svg id="Layer_2" data-name="Layer 2" xmlns="http://www.w3.org/2000/svg" viewBox="0 0 54.229 31.482">
  <g id="game_note_txt">
    <g id="game_note_txt_katsu">
      <path d="M8.223,31.482l-1.995-1.906c-.427-.408-1.558-1.268-2.269-1.69l-3.959-2.35,3.646-2.812c2.46-1.897,4.273-4.34,5.484-7.409H3.502V5.818h7.648c.038-.579,.068-1.187,.104-1.868l.206-3.95,11.15,.951-.613,3.38c-.103,.563-.323,1.075-.643,1.516l2.777-.035,1.101-.458,6.569,2.286-.975,2.926c-.061,.181-.133,.356-.219,.525-.565,11.025-1.814,14.205-2.714,15.636-1.506,2.365-3.917,3.66-6.798,3.66-1.62,0-3.495-.213-5.425-.615l-2.563-.535,.065-2.167c-.834,.923-1.765,1.818-2.809,2.669l-2.139,1.743Zm9.343-11.112c.791,.151,1.552,.26,2.097,.322,.234-.959,.547-2.769,.771-5.378h-1.011c-.45,1.582-1.042,3.3-1.858,5.056Z" fill="#262626"/>
      <path d="M35.467,30.793l-1.403-2.159c-.255-.394-.94-1.218-1.24-1.466l-4.166-3.443,5.062-1.893c1.65-.616,3.081-1.411,4.316-2.408l-1.488,.306-.032-.258-5.452,1.519-.684-3.264c-.295-1.403-.959-3.635-1.66-5.186l-1.488-3.293,8.624-2.475,.148,.318,6.794-1.32,.884,2.57c.032,.093,.063,.19,.095,.287l.596-2.636,9.855,3.183-1.139,3.06c-.216,.58-.566,1.077-1.01,1.465-2.548,8.015-7.213,13.3-14.226,16.13l-2.388,.963Z" fill="#262626"/>
      <path d="M8.37,27.733l-.2-.19c-.629-.601-1.926-1.57-2.776-2.075l-.396-.235,.364-.281c3.857-2.974,6.332-7.049,7.557-12.449H6.314v-3.871h7.384c.211-1.544,.28-2.876,.364-4.537l.054-1.044,5.175,.441-.061,.338c-.043,.234-.211,.627-.842,.806-.04,.43-.073,.83-.105,1.216-.082,.969-.153,1.82-.292,2.809h6.617l.713-.297,2.933,1.021-.098,.292c-.065,.193-.176,.364-.321,.497-.376,8.031-1.179,13.236-2.323,15.056-.978,1.535-2.505,2.346-4.418,2.346-1.429,0-3.107-.192-4.85-.556l-.256-.053,.007-.262c.027-.883-.104-2.428-.244-3.412l-.065-.451,.443,.102c1.689,.387,3.629,.624,4.276,.624,.697,0,1.177-.152,1.564-.927,.536-1.074,1.216-4.692,1.466-10.137h-6.191c-1.604,6.837-4.281,11.488-8.66,15.057l-.214,.174Z" fill="#fff"/>
      <path d="M36.563,27.318l-.14-.216c-.356-.549-1.216-1.614-1.807-2.102l-.416-.344,.505-.19c6.246-2.336,9.951-6.949,11.659-14.518l.076-.333,4.128,1.333-.114,.306c-.112,.303-.391,.505-.741,.552-2.236,7.864-6.344,12.766-12.911,15.416l-.239,.096Zm-3.361-9.842l-.07-.327c-.386-1.839-1.145-4.21-1.848-5.767l-.149-.33,3.188-.916,.114,.242c.742,1.589,1.591,4.124,1.975,5.897l.062,.288-3.273,.912Zm5.77-1.117l-.04-.337c-.221-1.82-.769-4.294-1.334-6.018l-.111-.337,3.448-.67,.088,.257c.581,1.689,1.111,4.354,1.334,6.114l.037,.287-3.422,.704Z" fill="#fff"/>
    </g>
  </g>
</svg>