<?xml version="1.0" encoding="UTF-8"?>
<svg id="Layer_2" data-name="Layer 2" xmlns="http://www.w3.org/2000/svg" viewBox="0 0 198.558 33.396">
  <g id="game_note_txt">
    <g id="game_note_txt_renda">
      <path d="M4.722,33.396L.599,24.59l2.236-1.492c.74-.493,1.425-.977,2.047-1.445v-1.438H1.774V10.912h3.9c-.717-.845-1.727-1.864-2.702-2.703L0,5.656,7.601,.038l1.874,1.479c.354,.278,.742,.601,1.145,.951h5.483V0l10.486,.515-.19,1.953h6.433V11.385h-1.266v5.549h1.622v5.15l2.853-.237-2.496,4.977c-.232,.463-.642,1.689-.76,2.358l-.431,2.449-2.483,.129c-2.015,.106-5.027,.17-8.058,.17-5.154,0-8.951,0-12.001-2.034-.184,.164-.366,.323-.545,.48-.303,.576-.817,1.15-1.675,1.581l-2.87,1.438Z" fill="#262626"/>
      <path d="M46.315,32.344h-2.712l-.382-2.686c-.05-.355-.249-1.012-.497-1.624-1.215,4.309-5.763,4.309-8.923,4.309h-2.664l-.422-2.631c-.076-.477-.425-1.582-.743-2.24l-2.277-4.702,2.473,.104-2.051-7.689,2.5-.444h-1.344V5.383h4.181V.006l10.641,.504-.187,1.82h17.551V11.826h-4.594v13.431c0,7.086-5.605,7.086-10.551,7.086Zm-3.284-9.672l2.223,.067c.645,.02,1.31,.032,1.924,.04v-2.332l-4.147,1.123v1.101Zm3.823-8.9l.323,2.998v-4.944h-.323v1.946Z" fill="#262626"/>
      <path d="M151.892,20.682V10.967H57.42s.592,10.688,.592,10.688l3.374-.482c.544-.077,1.063-.247,1.53-.491h88.976Z" fill="#262626"/>
      <path d="M155.334,30.497l-.656-2.528c-.257-.991-.61-2.078-.742-2.351l-2.027-4.191,4.611-.36c5.726-.355,8.289-1.632,8.289-2.74,0-.52,0-.807-1.165-.807h-.166c-1.718,.044-4.394,.664-7.458,1.747-.214,.074-.435,.159-.656,.243-.095,.037-.19,.072-.284,.107-.419,.377-.913,.67-1.446,.848l-3.022,1.013-3.153-10.073,3.542-.588c.705-.117,1.498-.309,2.358-.569,4.703-1.332,8.723-1.921,10.643-1.921,6.294,0,10.522,3.92,10.522,9.753,0,10.969-12.484,11.91-16.586,12.22l-2.604,.197Z" fill="#262626"/>
      <path d="M192.958,30.006c-3.088,0-5.601-2.537-5.601-5.656,0-1.238,.399-2.383,1.075-3.313l-.833-18.652h10.826l-.841,18.799c.614,.902,.973,1.993,.973,3.167,0,3.119-2.512,5.656-5.601,5.656Zm0-6.25c-.352,0-.649,.272-.649,.594,0,.343,.292,.621,.649,.621s.649-.278,.649-.621c0-.35-.342-.594-.649-.594Zm-11.552,6.25c-3.103,0-5.627-2.537-5.627-5.656,0-1.25,.409-2.406,1.101-3.341l-.831-18.624h10.825l-.84,18.799c.614,.902,.973,1.993,.973,3.167,0,3.119-2.512,5.656-5.601,5.656Zm0-6.25c-.364,0-.649,.261-.649,.594,0,.354,.28,.621,.649,.621,.349,0,.623-.273,.623-.621,0-.367-.323-.594-.623-.594Z" fill="#262626"/>
      <path d="M6.044,29.587l-1.872-4,.223-.149c1.251-.834,2.36-1.647,3.298-2.418v-5.618h-3.108v-3.678h6.896v9.109c1.571,2.579,4.539,2.579,9.424,2.579,1.868,0,6.561-.029,9.821-.3l.554-.046-.249,.498c-.375,.747-.859,2.24-1.017,3.131l-.043,.245-.249,.013c-1.969,.103-4.926,.165-7.91,.165-6.257,0-9.484,0-12.045-3.014-.973,.939-1.991,1.859-2.903,2.626-.018,.375-.22,.555-.533,.713l-.287,.144Zm16.714-4.237h-3.842v-2.283h-7.261v-3.32h7.261v-.585h-5.721V9.076h5.721v-.503h-6.754l-3.065,2.322-.178-.304c-.787-1.348-2.684-3.285-4.115-4.514l-.297-.255,3.038-2.245,.187,.148c1.389,1.096,3.253,2.834,4.252,4.204v-2.648h6.931V2.954l4.588,.225-.032,.327c-.045,.458-.382,.651-.714,.743v1.031h7.262v3.292h-7.262v.503h5.996v10.087h-5.996v.585h7.618v3.32h-7.618v2.283Zm0-9.124h2.18v-.723h-2.18v.723Zm-5.885,0h2.043v-.723h-2.043v.723Zm5.885-3.521h2.18v-.668h-2.18v.668Zm-5.885,0h2.043v-.668h-2.043v.668Z" fill="#fff"/>
      <path d="M46.315,29.531h-.271l-.038-.269c-.123-.868-.616-2.297-1.122-3.253l-.251-.475,.537,.016c1.201,.037,2.668,.055,4.363,.055,.458,0,.458-.072,.458-.375V9.014h-5.948v2.915h-3.823v3.756l3.922-.845,.369,3.417-4.291,1.162v6.141c0,3.423-1.523,3.971-6.418,3.971h-.266l-.043-.262c-.127-.792-.58-2.177-.989-3.021l-.228-.471,.522,.022c1.312,.055,2.715,.055,3.176,.055,.276-.018,.293-.037,.293-.32v-5.043l-2.511,.651c-.107,.27-.354,.47-.685,.543l-.292,.065-1.155-4.33,.334-.06c1.174-.209,2.695-.522,4.308-.856v-4.575h-4.181v-3.733h4.181V2.955l4.728,.223-.033,.328c-.048,.468-.385,.657-.742,.747v3.942h2.649v-3.053h15.779v3.871h-4.594V25.258c0,3.741-1.649,4.274-7.738,4.274Z" fill="#fff"/>
      <path d="M62.037,17.87c-.269,.308-.702,.47-1.049,.519l-.337,.049-.259-4.658h88.687v4.091H62.037Z" fill="#fff"/>
      <path d="M157.466,27.515l-.066-.253c-.215-.833-.668-2.365-.964-2.932l-.222-.426,.48-.031c7.251-.449,10.928-2.316,10.928-5.547,0-3.267-2.781-3.619-3.977-3.619h-.166c-2.076,.052-5.06,.729-8.394,1.907-.228,.079-.474,.173-.721,.267-.309,.117-.62,.236-.898,.328-.162,.269-.433,.492-.723,.59l-.303,.101-1.33-4.25,.354-.06c.824-.137,1.736-.355,2.711-.651,4.371-1.238,8.158-1.801,9.828-1.801,3.557,0,7.71,1.818,7.71,6.941,0,7.494-7.982,8.962-13.986,9.415l-.26,.02Z" fill="#fff"/>
      <path d="M192.958,27.194c-1.537,0-2.788-1.276-2.788-2.843,0-1.553,1.251-2.816,2.788-2.816s2.788,1.263,2.788,2.816c0,1.567-1.251,2.843-2.788,2.843Zm-11.552,0c-1.553,0-2.815-1.276-2.815-2.843,0-1.553,1.262-2.816,2.815-2.816,1.537,0,2.788,1.263,2.788,2.816,0,1.567-1.251,2.843-2.788,2.843Zm13.418-7.206h-3.623l-.66-14.79h4.945l-.662,14.79Zm-11.552,0h-3.623l-.66-14.79h4.944l-.66,14.79Z" fill="#fff"/>
    </g>
  </g>
</svg>