<?xml version="1.0" encoding="UTF-8"?>
<svg id="Layer_8" data-name="Layer 8" xmlns="http://www.w3.org/2000/svg" viewBox="0 0 30 668">
  <g>
    <path d="M13.413,37.055c-2.621,0-6.313-1.106-9.02-6.379-1.55-3.057-2.333-6.958-2.333-11.604,0-5.634,1.058-10.133,3.144-13.37C7.294,2.381,9.968,.688,13.139,.688c.072,0,.146,.002,.219,.005,.633-.629,1.371-.693,1.646-.693,.902,0,1.837,.426,3.031,1.38,1.475,1.203,2.564,2.509,3.256,3.895,.395,.856,.606,1.796,.663,2.893,.721,1.156,1.264,2.284,1.615,3.359,.654,2.185,.978,4.719,.978,7.581,0,4.194-.664,7.862-1.974,10.903-2.462,5.82-6.341,7.044-9.16,7.044Zm-.325-27.033c-.094,.146-.198,.325-.312,.545-.866,1.738-1.313,4.608-1.313,8.505,0,3.457,.37,6,1.101,7.561,.313,.672,.637,1.022,.794,1.022,.527,0,1.895-1.62,1.895-9.019,0-1.885-.035-3.377-.105-4.435-.045-.667-.083-1.118-.114-1.419-.239-.179-.442-.345-.613-.501l-.104-.096-.09-.11c-.366-.447-.721-1.085-1.138-2.054Z" fill="#262626"/>
    <path d="M15.635,81.771c-1.057,0-3.009-.397-4.21-3.063-.572-1.27-.862-2.777-.862-4.481,0-.897,.089-1.639,.271-2.264l.06-.205,.102-.188c.091-.168,.177-.335,.257-.503,.029-3.229,.111-6.951,.244-11.119-.832,.636-1.681,.803-2.334,.803-1.072,0-3.001-.479-3.877-3.685-.29-1.117-.428-2.407-.428-3.97,0-1.307,.184-2.372,.56-3.256,.715-1.826,2.184-1.97,2.62-1.97,.644,0,1.223,.185,1.704,.527,.487-.32,1.214-.856,2.263-1.752,.945-.845,1.28-1.099,1.479-1.23,.754-.474,1.48-.698,2.207-.698,1.156,0,2.332,.544,3.495,1.617,1.57,1.538,2.345,3.189,2.345,4.949,0,1.098-.282,2.05-.84,2.83-.042,.056-.072,.1-.094,.132l-.013,.123c-.245,2.206-.37,5.631-.37,10.181,0,2.565,.063,5.116,.188,7.582,.04,1.502,.058,2.449,.058,2.893,0,1.467-.254,2.77-.756,3.872-1.041,2.494-2.997,2.875-4.068,2.875Z" fill="#262626"/>
    <path d="M7.023,126.489c-1.531,0-2.895-.886-4.054-2.634-1.013-1.619-1.512-3.329-1.512-5.129,0-2.179,.968-3.197,1.8-3.669,1.725-2.479,3.86-5.288,6.355-8.357,1.989-2.447,3.348-4.525,4.038-6.179,.327-.801,.403-1.255,.419-1.465-.183,.093-.493,.297-.935,.743-.407,.432-1.081,1.382-1.801,3.288-1.005,3.032-2.737,3.685-4.01,3.685-1.399,0-3.272-.709-4.253-4.088-.334-1.269-.49-2.822-.49-4.798,0-1.355,0-5.479,3.042-5.479,.282,0,.607,.043,.948,.171,1.144-.967,2.196-1.656,3.21-2.104,1.377-.616,2.889-.931,4.482-.931,2.407,0,4.394,.701,5.903,2.084,1.492,1.346,2.524,3.122,3.058,5.27,.238,.915,.361,1.913,.361,2.946,0,2.252-.598,4.43-1.775,6.472-.386,.726-.805,1.362-1.248,1.887-.372,.44-1.183,1.329-2.479,2.719-1.075,1.149-2.093,2.267-3.05,3.347,.384-.055,.774-.105,1.173-.153,.701-.432,1.401-.649,2.088-.649,.822,0,1.679,.313,2.693,.984,1.267,.867,2.291,1.911,3.072,3.119,.732,1.209,1.088,2.398,1.088,3.587,0,.951-.255,1.852-.759,2.674l-.052,.085-.06,.08c-1.109,1.463-2.375,1.771-3.241,1.771-.71,0-1.551-.25-2.727-.812-1.062-.492-2.393-.747-3.938-.747-1.642,0-3.118,.405-4.516,1.239-1.083,.7-2.002,1.044-2.835,1.044Z" fill="#262626"/>
    <path d="M13.797,170.663c-2.903,0-5.827-1.41-8.689-4.19-2.006-1.964-2.938-3.604-2.938-5.167,0-1.345,.591-2.149,1.088-2.588,.525-.482,1.201-.753,1.927-.753,.801,0,1.633,.332,2.544,1.017,1.433,1.111,2.765,1.665,3.984,1.665,.782,0,1.383-.215,1.892-.677,.852-.75,1.237-1.586,1.237-2.651,0-.403-.063-.726-.172-.897-.132,.01-.381,.065-.746,.382-.943,.969-1.884,1.175-2.514,1.175-1.802,0-3.282-1.248-4.399-3.711-.475-.97-.728-2.144-.728-3.436,0-.256,.01-.49,.029-.707-.895-.316-1.929-1.079-2.668-2.827-.49-1.109-.734-2.665-.734-4.729,0-1.669,0-6.748,3.591-6.748,.33,0,.802,.066,1.293,.354,.526-.376,.99-.665,1.399-.873,1.515-.882,3.155-1.329,4.877-1.329,2.824,0,5.207,1.128,6.892,3.262,1.474,1.919,2.212,4.194,2.212,6.785,0,2.371-.667,4.531-1.987,6.447,.342,.32,.63,.643,.867,.97,1.566,2.014,2.382,4.45,2.382,7.188,0,3.282-1.003,6.111-2.98,8.409-2.069,2.409-4.646,3.631-7.658,3.631Zm-2.575-23.882c-.065,.25-.133,.481-.203,.695,.469-.17,.919-.479,1.325-.926l.083-.086c.88-.859,1.29-1.729,1.29-2.737,0-.134-.019-.205-.026-.221l-.13-.094c-.781,.086-1.444,1.176-1.87,2.097-.154,.353-.317,.791-.469,1.271Z" fill="#262626"/>
    <path d="M16.718,215.525c-1.092,0-2.642-.422-3.862-2.416-.438-.621-.743-1.461-.957-2.63-.147-.661-.226-1.275-.226-1.811,0-.333,.037-.661,.109-.984-2.03,.377-2.55,.773-2.616,.831l-.103,.082c-.865,.652-1.731,.983-2.576,.983-1.281,0-2.54-.737-3.846-2.253-1.068-1.236-1.61-2.579-1.61-3.987,0-.718,.163-1.528,.498-2.478l.037-.104,1.89-3.878c2.51-5.271,4.26-9.635,5.208-12.979-.479-.662-.721-1.35-.721-2.055,0-1.11,.4-2.1,1.158-2.86,.538-.571,1.369-.88,2.433-.88,1.535,0,2.95,.454,4.206,1.351,2.45,1.617,2.978,3.556,2.978,4.89,0,.146-.008,.293-.022,.441,.416,.297,.785,.624,1.104,.979,1.073,1.143,1.634,2.408,1.634,3.727,0,.293-.038,.699-.128,1.356-.207,1.348-.339,3.397-.396,6.127,1.18,.265,2.307,1.069,3.358,2.404,.9,1.224,1.335,2.488,1.335,3.813,0,1.836-.843,2.868-1.587,3.421-.682,.564-1.553,.862-2.525,.862-.11,0-.247-.005-.464-.027,.053,.926,.078,1.646,.078,2.195,0,1.193-.215,2.259-.639,3.169-.731,1.723-2.095,2.709-3.747,2.709Z" fill="#262626"/>
    <path d="M14.112,259.735c-3.749,0-7.338-2.022-10.667-6.011-.979-1.218-1.425-2.237-1.425-3.238,0-.893,.31-1.706,.897-2.358,.487-.58,1.21-.91,2.007-.91,.545,0,1.118,.173,1.919,.578,2.109,1.195,3.973,1.778,5.624,1.778,.715,0,1.27-.14,1.646-.414,.257-.208,.633-.646,.633-1.718,0-.724-.167-1.272-.512-1.677-.237-.268-.486-.383-.863-.383-.318,0-.491,.057-.586,.108-.056,.094-.164,.281-.333,.601-.988,1.874-2.46,2.154-3.249,2.154-1.538,0-2.961-.939-4.229-2.791-.835-1.236-1.255-2.527-1.255-3.849,0-1.044,.248-1.947,.736-2.688,.013-.109,.026-.283,.031-.542v-2.098c.033-2.924,.071-5.008,.117-6.351-1.037-.82-1.598-1.987-1.598-3.363,0-2.184,1.528-3.595,3.893-3.595,1.261,0,2.503,.451,3.692,1.341,.343,.259,.661,.539,.955,.839,1.074-.173,2.188-.463,3.353-.87,.801-.58,1.623-.874,2.448-.874,.771,0,1.585,.228,2.486,.696,3.001,1.577,3.629,3.846,3.629,5.472,0,1.246-.366,2.321-1.09,3.195-.766,.907-1.769,1.378-2.912,1.378h-.188l-.961-.182h-.771c-.901,0-1.854,.188-2.829,.559-.467,.169-.956,.274-1.471,.321-.006,.373-.012,.743-.017,1.109,.584-.127,1.164-.19,1.738-.19,3.001,0,5.581,1.439,7.461,4.163,1.435,2.067,2.164,4.573,2.164,7.441,0,3.35-.931,6.219-2.766,8.529-1.966,2.539-4.565,3.837-7.711,3.837Z" fill="#262626"/>
    <path d="M14.236,304.742c-5.023,0-8.703-2.647-10.642-7.657-.899-2.211-1.342-5.042-1.342-8.622,0-2.642,.285-4.964,.847-6.9,.936-3.129,2.259-5.752,3.938-7.811,1.151-1.347,2.347-2.326,3.584-2.95l.069-.035,.916-.375c.043-1.795,1.31-2.993,3.179-2.993,1.289,0,2.533,.479,3.7,1.425,2.669,2.115,4.031,4.484,4.031,7.026,0,.879-.158,1.725-.47,2.512-.716,1.615-2.021,2.497-3.614,2.497-.97,0-2.396-.378-3.684-2.179-.091-.134-.127-.161-.128-.161-.101,.02-.636,.295-1.409,1.518-.355,.55-.649,1.16-.881,1.83,1.016-.369,1.964-.551,2.865-.551,2.971,0,5.43,1.306,7.111,3.774,1.358,1.998,2.047,4.547,2.047,7.577,0,3.672-1.112,6.728-3.306,9.083-1.799,1.979-4.097,2.992-6.813,2.992Zm-2.337-11.932c.176,.905,.406,1.663,.69,2.267,.738,1.68,1.392,1.78,1.655,1.787,.136-.183,.597-1,.597-3.69,0-1.629-.204-2.414-.339-2.756-.096,.054-.229,.134-.395,.253-.166,.124-.341,.33-.497,.602l-.059,.096c-.509,.777-1.104,1.208-1.653,1.442Z" fill="#262626"/>
    <path d="M13.633,348.989c-.952,0-2.329-.331-3.48-1.907-.93-1.192-1.4-2.911-1.4-5.203,0-1.225,.126-2.185,.385-2.936,.149-.484,.427-1.014,.818-1.546,.56-2.272,1.168-4.567,1.809-6.827,.35-1.303,1.018-3.53,2.034-6.775-.627,.3-1.166,.498-1.65,.604,0,.084,0,.16,0,.229,0,2.955-.276,4.789-.895,5.945l-.052,.091c-.729,1.207-1.883,1.872-3.247,1.872-.975,0-2.411-.374-3.723-2.154-.989-1.241-1.514-2.66-1.514-4.159,0-.563,.141-1.167,.442-1.898,.029-.125,.133-.708,.133-2.56,0-.909-.027-1.524-.059-1.933-.889-.804-1.367-1.889-1.367-3.141,0-2.814,1.875-3.813,3.481-3.813,1.294,0,2.639,.606,4.098,1.852,1.039-.105,2.923-.488,6.338-1.552,.729-.597,1.435-.735,1.935-.735,1.899,0,3.581,1,4.997,2.972,1.335,1.793,2.022,3.609,2.022,5.371,0,.613-.113,1.242-.337,1.869l-.062,.152c-.259,.57-.678,1.146-1.279,1.761-.212,.273-1.233,1.978-3.366,11.134-1.014,4.653-1.297,6.386-1.355,7.015-.255,1.856-.622,3.092-1.165,3.978-1.121,1.894-2.546,2.296-3.541,2.296Z" fill="#262626"/>
    <path d="M13.578,393.309c-3.415,0-6.126-.912-8.056-2.712-2.403-2.213-3.626-5.098-3.626-8.566,0-1.762,.303-3.443,.901-4.996,.551-1.329,1.411-2.654,2.574-3.974-.382-.484-.695-.95-.948-1.404-.841-1.532-1.266-3.259-1.266-5.139,0-2.741,.838-5.02,2.492-6.772,1.325-1.42,3.051-2.385,5.121-2.86,.808-.202,1.504-.305,2.094-.305,.295,0,.747,.03,1.683,.214,.634-.553,1.337-.612,1.608-.612,1.405,0,2.427,1.031,3.073,1.807,.234,.307,.342,.406,.38,.438,2.054,1.829,3.072,3.807,3.072,5.916,0,.204-.014,.407-.039,.607,.291,.386,.516,.769,.678,1.155,.369,.812,.568,1.785,.568,2.841,0,1.988-.577,3.617-1.715,4.841-.117,.121-.239,.238-.368,.353,.111,.115,.191,.206,.256,.28l.093,.116c1.696,2.301,2.557,4.943,2.557,7.856,0,2.677-.724,5.006-2.151,6.922-1.984,2.651-5.005,3.994-8.981,3.994Zm-1.045-14.147c-.911,.803-1.343,1.801-1.343,3.122,0,1.755,.635,2.229,.844,2.386,.455,.343,1.004,.508,1.682,.508,.576,0,1.016-.128,1.383-.401,.27-.207,.566-.545,.566-1.368,0-.229-.063-.643-.367-1.307-.199-.463-.659-1.175-1.823-2.185-.406-.336-.713-.579-.941-.755Zm-.034-12.776c.095,.097,.438,.419,1.451,1.174l.247,.201c.253-.099,.491-.193,.713-.281-.396-.53-.758-1.227-1.058-2.134-.132-.215-.217-.313-.247-.346,.005,.008-.003,.011-.022,.011-.034,0-.103-.008-.196-.008-.552,0-.813,.166-.962,.291-.111,.102-.138,.196-.138,.354,0,.386,.111,.592,.195,.714l.017,.023Z" fill="#262626"/>
    <path d="M16.897,438.171c-1.071,0-2.622-.403-3.931-2.324-.841-1.312-1.251-2.869-1.251-4.678,0-.753,.088-1.379,.268-1.903,.124-.511,.367-1.048,.75-1.655,.106-.732,.206-1.462,.301-2.186-.323,.04-.646,.061-.965,.061-2.067,0-3.998-.606-5.739-1.802-1.394-.999-2.423-2.378-3.093-4.119-.733-1.691-1.121-3.689-1.121-5.865,0-3.714,1.002-6.763,2.98-9.061,1.89-2.258,4.307-3.413,7.166-3.413,1.236,0,2.54,.289,3.948,.878,.673-.633,1.444-.733,1.866-.733,1.181,0,2.396,.549,3.713,1.677,2.22,1.725,2.701,3.715,2.701,5.071,0,.585-.103,1.288-.314,2.148-.482,2.847-.972,6.454-1.452,10.725-.544,4.454-.891,7.83-1.034,10.053-.107,1.897-.263,2.601-.387,3-.976,3.582-3.181,4.127-4.406,4.127Zm-3.209-27.944c-.306,0-.666,.052-1.079,.67-.361,.536-.542,1.343-.542,2.404,0,1.172,.161,1.528,.168,1.543,.296,.611,.585,.661,.932,.661,.269,0,.587-.15,.945-.447,.136-.109,.227-.197,.287-.263l.363-3.997c-.036-.029-.213-.173-.213-.173-.399-.357-.683-.398-.861-.398Z" fill="#262626"/>
    <path d="M13.194,482.235c-1.113,0-3.141-.479-4.203-3.69-.286-.885-.43-1.824-.43-2.804,0-.619,.11-1.18,.328-1.676v-4.589c-.099,0-.199,0-.303,0-3.02,0-5.21-.638-6.699-1.948-1.089-.961-1.665-2.281-1.665-3.82,0-1.408,.561-2.26,1.031-2.726,.47-.464,1.321-1.015,2.725-1.015h.755s.57,.502,.572,.504c.078-.021,.177-.052,.299-.096l.082-.029,.085-.022c1.007-.267,2.049-.532,3.124-.799,.012-1.698,.043-3.576,.092-5.607-.704-.664-1.084-1.59-1.084-2.679,0-1.408,.562-2.26,1.032-2.726l.086-.081c.409-.359,1.122-.788,2.198-.788,1.29,0,2.54,.616,3.821,1.885,1.424,1.478,2.128,3.115,2.128,4.899,0,.516-.035,1.469-.112,3-.014,.233-.025,.457-.037,.671,.368-.011,.739-.017,1.112-.017,2.264,0,3.942,.318,5.132,.973,1.868,1.016,2.901,2.721,2.901,4.797,0,1.313-.358,2.45-1.064,3.383-.738,.978-1.772,1.517-2.91,1.517-.702,0-1.519-.188-2.494-.576-.097-.036-.487-.148-1.346-.148-.504,0-.927,.021-1.28,.055,.016,1.776,.049,4.805,.099,9.085,0,1.157-.192,2.049-.587,2.747-1.012,2.008-2.56,2.32-3.388,2.32Z" fill="#262626"/>
    <path d="M8.367,511.477c-1.53,0-3.316-.979-3.316-3.739s1.786-3.74,3.316-3.74h9.654c1.53,0,3.316,.979,3.316,3.74s-1.786,3.739-3.316,3.739H8.367Z" fill="#262626"/>
    <path d="M13.194,570.293c-.824,0-2.324-.347-3.104-2.668-.364-1.084-.542-2.478-.542-4.261,0-1.063,.041-1.904,.125-2.571,.21-1.657,1.278-2.314,2.205-2.393,.418-.177,.802-.226,1.096-.226,.824,0,2.344,.328,3.271,2.529,.397,.922,.595,2.13,.595,3.675,0,1.708-.259,3.016-.79,3.997-.836,1.661-2.149,1.917-2.855,1.917Z" fill="#262626"/>
    <polygon points="0 616.279 19.188 577.195 26.386 577.195 7.199 616.279 0 616.279" fill="#262626"/>
    <path d="M21.092,661.105c-1.453,0-3.558-.489-5.324-2.822-1.258-1.663-1.881-3.908-1.856-6.684-.049-.064-.095-.13-.139-.196-1.403,1.956-2.771,3.893-4.092,5.797l-.062,.089-.071,.082c-.64,.737-1.005,1.193-1.203,1.453-1.21,1.764-2.622,2.136-3.599,2.136-1.207,0-2.279-.538-3.021-1.517-.561-.741-.845-1.684-.845-2.803,0-1.313,.309-2.522,.919-3.597,.637-1.084,1.107-1.747,1.539-2.174l.584-.579h.419c.93-1.055,2.529-3.132,4.75-6.174-.202,.017-.407,.025-.616,.025-1.456,0-3.562-.49-5.326-2.823-1.257-1.659-1.88-3.903-1.856-6.681-.561-.748-.853-1.646-.853-2.644,0-1.177,.338-2.071,1.006-2.66,.26-.229,.664-.491,1.235-.617,.35-.536,.751-1.031,1.202-1.478,1.244-1.233,2.794-1.885,4.481-1.885,1.59,0,3.854,.558,5.616,3.214,1.169,1.787,1.759,3.911,1.759,6.325v.06c1.694-2.344,2.985-4.153,3.862-5.415-.12-.37-.183-.764-.183-1.169,0-.831,.21-1.529,.625-2.077,.596-.79,1.475-1.228,2.471-1.228,1.6,0,2.619,1.378,3.247,2.414,.844,1.362,1.276,2.74,1.276,4.08,0,1.552-.459,2.87-1.363,3.917-1.492,1.781-3.281,4.085-5.338,6.873,.212-.021,.426-.032,.643-.032,1.592,0,3.857,.558,5.617,3.215,1.168,1.781,1.758,3.906,1.758,6.324,0,2.657-.652,4.868-1.939,6.57-1.328,1.753-3.169,2.679-5.326,2.679Zm-1.133-9.038c.066,.509,.198,.962,.396,1.355,.186,.368,.404,.638,.518,.638,.105,0,.331-.158,.599-.512,.037-.049,.362-.524,.362-2.128,0-.754-.146-1.407-.443-1.998-.072-.143-.098-.193-.31-.204-.081,.095-.258,.347-.451,.926-.074,.457-.232,1.247-.671,1.923Zm-12.616-16.96c.065,.508,.198,.96,.395,1.351,.188,.371,.405,.641,.519,.641,.106,0,.333-.158,.601-.512,.06-.079,.362-.559,.362-2.128,0-.754-.146-1.407-.443-1.998-.072-.143-.099-.193-.31-.204-.082,.095-.258,.347-.451,.926-.074,.457-.233,1.248-.672,1.925Z" fill="#262626"/>
  </g>
  <g id="Layer_9" data-name="Layer 9">
    <path d="M19.968,8.778c.785,1.184,1.353,2.308,1.7,3.37,.585,1.957,.878,4.276,.878,6.959,0,3.938-.604,7.31-1.811,10.112-1.646,3.89-4.087,5.835-7.323,5.835-3.017,0-5.43-1.765-7.24-5.292-1.408-2.778-2.112-6.343-2.112-10.691,0-5.268,.941-9.363,2.825-12.287,1.719-2.729,3.803-4.096,6.254-4.096,.311,0,.667,.049,1.069,.146,.073,.024,.146,.036,.22,.036,.036-.12,.072-.241,.109-.362,.128-.338,.283-.508,.466-.508,.402,0,.997,.314,1.783,.942,1.243,1.015,2.148,2.091,2.715,3.226,.311,.677,.467,1.547,.467,2.61Zm-3.127,2.826c-.476-.313-.832-.579-1.069-.797-.257-.313-.567-.906-.933-1.776-.274-.652-.549-1.074-.823-1.269-.128-.192-.348-.29-.658-.29-.822,0-1.608,.726-2.358,2.175-1.024,2.055-1.536,5.195-1.536,9.424,0,3.77,.43,6.572,1.289,8.408,.677,1.45,1.545,2.175,2.605,2.175,2.597,0,3.895-3.673,3.895-11.019,0-1.933-.036-3.455-.109-4.566-.109-1.618-.211-2.44-.302-2.465Z" fill="#fff"/>
    <path d="M9.081,50.85c.748-.024,2.156-.918,4.223-2.683,.676-.604,1.107-.966,1.289-1.087,.385-.241,.75-.362,1.098-.362,.639,0,1.354,.362,2.139,1.087,1.135,1.112,1.701,2.271,1.701,3.479,0,.677-.156,1.232-.467,1.667-.273,.363-.43,.689-.467,.979v.218c-.256,2.296-.383,5.763-.383,10.402,0,2.586,.063,5.146,.191,7.684,.037,1.426,.055,2.355,.055,2.791,0,1.184-.191,2.198-.576,3.044-.475,1.136-1.225,1.703-2.248,1.703s-1.82-.628-2.387-1.885c-.457-1.015-.686-2.234-.686-3.66,0-.7,.064-1.269,.191-1.703,.184-.339,.348-.677,.494-1.015,.037-4.663,.184-10.317,.439-16.963-1.207,1.16-2.104,2.163-2.688,3.009-.531,.797-1.145,1.196-1.838,1.196-.896,0-1.545-.737-1.947-2.211-.238-.918-.357-2.066-.357-3.443,0-1.039,.138-1.872,.412-2.501,.183-.483,.439-.725,.768-.725,.512,0,.859,.326,1.043,.979Z" fill="#fff"/>
    <path d="M16.924,116.045c.512-.387,.969-.58,1.371-.58s.932,.217,1.59,.652c1.023,.701,1.855,1.546,2.496,2.537,.512,.846,.768,1.68,.768,2.501,0,.579-.154,1.123-.465,1.631-.494,.652-1.043,.979-1.646,.979-.385,0-1.006-.206-1.865-.616-1.354-.629-2.953-.942-4.799-.942-1.994,0-3.84,.507-5.541,1.522-.785,.507-1.389,.761-1.81,.761-.823,0-1.618-.58-2.387-1.739-.786-1.257-1.179-2.598-1.179-4.023,0-1.184,.375-1.872,1.125-2.066,1.756-2.561,3.95-5.46,6.583-8.698,2.121-2.609,3.564-4.832,4.332-6.669,.385-.942,.576-1.715,.576-2.319,0-.7-.256-1.232-.768-1.595-.311-.266-.658-.398-1.041-.398-.77,0-1.619,.471-2.551,1.413-.824,.87-1.574,2.199-2.25,3.987-.529,1.595-1.244,2.392-2.139,2.392-1.043,0-1.82-.882-2.332-2.646-.273-1.039-.411-2.452-.411-4.24,0-2.32,.348-3.479,1.042-3.479,.366,0,.714,.302,1.043,.906,.036-.049,.21-.241,.521-.58,.182-.146,.346-.302,.492-.472,1.061-.918,2.031-1.57,2.908-1.957,1.133-.507,2.359-.761,3.676-.761,1.9,0,3.418,.52,4.553,1.559,1.205,1.087,2.029,2.513,2.467,4.276,.201,.773,.303,1.595,.303,2.465,0,1.909-.504,3.732-1.508,5.473-.348,.652-.695,1.184-1.043,1.595s-1.152,1.293-2.414,2.646c-2.688,2.876-5,5.521-6.938,7.938,1.992-.652,4.406-1.136,7.24-1.449Z" fill="#fff"/>
    <path d="M7.489,138.943c1.135-.942,2.021-1.57,2.66-1.885,1.225-.725,2.533-1.088,3.922-1.088,2.23,0,4.006,.834,5.322,2.501,1.188,1.547,1.781,3.396,1.781,5.546,0,2.585-.951,4.845-2.852,6.777,.986,.629,1.691,1.232,2.111,1.813,1.334,1.716,2.002,3.721,2.002,6.016,0,2.804-.832,5.171-2.496,7.104-1.682,1.957-3.729,2.936-6.143,2.936-2.377,0-4.809-1.209-7.296-3.625-1.554-1.521-2.331-2.766-2.331-3.732,0-.483,.137-.846,.411-1.088,.183-.168,.384-.253,.604-.253,.348,0,.796,.205,1.344,.616,1.774,1.377,3.501,2.065,5.185,2.065,1.279,0,2.357-.398,3.236-1.196,1.262-1.111,1.893-2.488,1.893-4.132,0-.942-.221-1.679-.658-2.211-.385-.458-.869-.688-1.455-.688-.768,0-1.498,.314-2.193,.942-.385,.411-.76,.616-1.125,.616-.951,0-1.811-.846-2.578-2.537-.365-.748-.549-1.618-.549-2.609,0-.508,.047-.87,.139-1.087,.201-.387,.465-.58,.795-.58,.182,0,.484,.169,.904,.507,.365,0,.832-.084,1.398-.253,.879-.29,1.646-.798,2.305-1.522,1.262-1.232,1.893-2.622,1.893-4.168,0-.821-.293-1.438-.877-1.849-.348-.313-.742-.472-1.18-.472-1.518,0-2.779,1.088-3.785,3.263-.201,.459-.395,.979-.576,1.559-.219,.846-.447,1.401-.686,1.667-.256,.29-.621,.435-1.098,.435-.841,0-1.518-.604-2.029-1.813-.384-.869-.576-2.187-.576-3.95,0-3.165,.53-4.748,1.591-4.748,.329,0,.632,.303,.905,.906,.018,.097,.045,.169,.082,.218Z" fill="#fff"/>
    <path d="M10.876,183.37c-.622-.555-.933-1.063-.933-1.521,0-.58,.191-1.063,.576-1.45,.183-.193,.521-.29,1.015-.29,1.115,0,2.13,.326,3.044,.979,1.427,.942,2.14,2.03,2.14,3.262,0,.411-.119,.883-.356,1.414,.822,.362,1.472,.81,1.947,1.341,.749,.798,1.124,1.595,1.124,2.393,0,.193-.037,.556-.109,1.087-.257,1.667-.402,4.313-.439,7.938v.616c.165,0,.385-.036,.658-.109,.238-.096,.402-.145,.494-.145,.859,0,1.746,.58,2.66,1.739,.604,.822,.905,1.68,.905,2.574,0,.846-.274,1.462-.823,1.848-.329,.29-.759,.436-1.289,.436-.201,0-.658-.061-1.371-.182h-1.124c.018,1.111,.027,1.825,.027,2.139,.055,.942,.082,1.68,.082,2.211,0,.918-.155,1.703-.466,2.355-.421,1.015-1.061,1.522-1.92,1.522s-1.591-.508-2.194-1.522c-.274-.362-.494-.991-.658-1.885-.128-.58-.192-1.063-.192-1.449,0-.531,.174-1.052,.521-1.559v-1.776c-3.328,.339-5.439,.895-6.335,1.667-.513,.387-.97,.58-1.372,.58-.658,0-1.436-.52-2.331-1.559-.75-.869-1.125-1.763-1.125-2.682,0-.483,.128-1.087,.384-1.813,.128-.266,.741-1.521,1.838-3.77,2.853-5.991,4.727-10.788,5.623-14.389Zm3.4,6.416l-.027-.109-.356,.725-.604,1.232c-1.024,2.079-2.459,5.11-4.306,9.098,1.554-.459,3.318-.821,5.293-1.088v-9.857Z" fill="#fff"/>
    <path d="M11.206,238.889c1.299-.749,2.551-1.124,3.758-1.124,2.357,0,4.297,1.1,5.814,3.299,1.207,1.739,1.811,3.842,1.811,6.306,0,2.899-.777,5.328-2.332,7.285-1.59,2.054-3.639,3.081-6.145,3.081-3.145,0-6.188-1.765-9.132-5.292-.641-.797-.96-1.449-.96-1.957,0-.41,.137-.761,.412-1.051,.109-.146,.274-.218,.493-.218,.201,0,.539,.121,1.016,.362,2.34,1.329,4.516,1.994,6.527,1.994,1.152,0,2.094-.266,2.824-.798,.969-.773,1.455-1.885,1.455-3.334,0-1.208-.33-2.199-.988-2.973-.641-.725-1.436-1.087-2.387-1.087-.859,0-1.545,.242-2.057,.725-.127,.146-.338,.496-.631,1.051-.383,.726-.877,1.088-1.48,1.088-.842,0-1.701-.64-2.578-1.921-.604-.894-.905-1.8-.905-2.719,0-.652,.137-1.184,.411-1.595,.22-.145,.338-.676,.356-1.595v-2.138c.037-3.286,.082-5.569,.138-6.851v-.217c0-.363-.019-.544-.056-.544h-.246c-.878-.459-1.316-1.16-1.316-2.103,0-1.063,.631-1.595,1.893-1.595,.823,0,1.655,.314,2.495,.942,.512,.387,.951,.834,1.316,1.341,.018,.049,.055,.073,.109,.073,.074,0,.193-.013,.357-.037,.092-.048,.273-.096,.549-.145,1.297-.193,2.678-.556,4.141-1.087,.531-.436,1.023-.652,1.48-.652,.439,0,.961,.157,1.564,.471,1.701,.895,2.551,2.127,2.551,3.697,0,.773-.211,1.413-.631,1.921-.367,.435-.822,.652-1.371,.652l-.961-.182h-.959c-1.152,0-2.332,.23-3.539,.688-.402,.146-.859,.218-1.371,.218-.219,0-.631-.06-1.234-.182h-.109c-.055,2.175-.082,4.241-.082,6.198Z" fill="#fff"/>
    <path d="M13.907,271.609c-.201-.411-.302-.785-.302-1.124,0-.725,.394-1.087,1.18-1.087,.822,0,1.636,.326,2.44,.979,2.194,1.739,3.291,3.564,3.291,5.473,0,.629-.109,1.221-.329,1.776-.365,.821-.95,1.232-1.755,1.232-.731,0-1.417-.447-2.057-1.342-.439-.652-1.015-.979-1.729-.979-1.061,0-2.103,.811-3.126,2.429-.75,1.159-1.271,2.525-1.563,4.096-.165,.677-.247,1.341-.247,1.993,0,.097,.036,.145,.109,.145,.238,0,.558-.12,.96-.362,1.701-1.015,3.173-1.522,4.416-1.522,2.322,0,4.142,.967,5.458,2.9,1.134,1.667,1.7,3.817,1.7,6.451,0,3.165-.924,5.738-2.77,7.72-1.427,1.57-3.209,2.355-5.349,2.355-4.205,0-7.131-2.126-8.776-6.379-.805-1.98-1.207-4.614-1.207-7.9,0-2.465,.256-4.579,.768-6.343,.859-2.875,2.049-5.243,3.566-7.104,.95-1.11,1.929-1.921,2.935-2.428l2.386-.979Zm-4.306,19.064c.183,2.223,.576,3.975,1.179,5.255,.859,1.957,2.03,2.936,3.511,2.936,1.7,0,2.551-1.896,2.551-5.69,0-3.237-.723-4.856-2.167-4.856-.476,0-1.051,.242-1.728,.725-.421,.314-.777,.726-1.069,1.232-.348,.532-.769,.798-1.262,.798-.293,0-.631-.133-1.015-.398Z" fill="#fff"/>
    <path d="M16.815,314.95c.311-.338,.611-.508,.904-.508,1.225,0,2.35,.714,3.373,2.139,1.098,1.475,1.646,2.876,1.646,4.204,0,.387-.074,.786-.221,1.196-.164,.362-.475,.773-.932,1.232-.934,1.039-2.213,5.05-3.84,12.033-.842,3.866-1.307,6.294-1.398,7.284-.201,1.45-.494,2.489-.879,3.117-.529,.894-1.143,1.341-1.836,1.341-.713,0-1.336-.362-1.865-1.087-.678-.87-1.016-2.211-1.016-4.023,0-.99,.092-1.751,.275-2.283,.127-.41,.383-.846,.768-1.305,.584-2.392,1.215-4.784,1.893-7.176,.383-1.426,1.143-3.938,2.275-7.539,.348-1.16,.713-2.223,1.098-3.189-.037,.049-.164,.085-.385,.108-.549,.073-1.691,.521-3.428,1.342-.859,.435-1.49,.652-1.893,.652s-.822-.157-1.262-.472l.027,.544c.018,.967,.027,1.655,.027,2.065,0,2.514-.219,4.181-.658,5.002-.365,.604-.877,.906-1.535,.906-.75,0-1.454-.447-2.112-1.341-.75-.942-1.124-1.934-1.124-2.973,0-.29,.1-.676,.301-1.159,.183-.411,.274-1.51,.274-3.299,0-1.449-.064-2.464-.191-3.044-.823-.459-1.235-1.136-1.235-2.029,0-1.208,.494-1.813,1.481-1.813,.896,0,1.966,.58,3.21,1.739,.035,.097,.137,.146,.301,.146,1.482,0,4.133-.604,7.955-1.813Z" fill="#fff"/>
    <path d="M18.542,373.875c1.024,.87,1.691,1.486,2.003,1.849,1.443,1.957,2.166,4.181,2.166,6.669,0,2.247-.585,4.156-1.755,5.727-1.591,2.126-4.05,3.189-7.378,3.189-2.907,0-5.138-.726-6.692-2.175-1.993-1.836-2.989-4.204-2.989-7.104,0-1.522,.256-2.948,.768-4.277,.622-1.498,1.765-3.044,3.429-4.639-.877-.894-1.518-1.704-1.92-2.429-.677-1.232-1.015-2.621-1.015-4.168,0-2.223,.648-4.023,1.947-5.4,1.061-1.136,2.432-1.896,4.114-2.283,.676-.169,1.225-.254,1.646-.254,.438,0,1.316,.157,2.633,.472,.036-.097,.063-.193,.082-.29,.146-.387,.339-.58,.576-.58,.421,0,.933,.362,1.536,1.087,.22,.29,.43,.521,.631,.689,1.572,1.401,2.358,2.863,2.358,4.385,0,.387-.082,.762-.247,1.124,.512,.507,.859,.979,1.042,1.413,.274,.604,.412,1.293,.412,2.066,0,1.474-.394,2.634-1.18,3.479-.493,.507-1.216,.99-2.167,1.449Zm-5.896,3.009c-.329,0-.759,.217-1.289,.652-1.444,1.208-2.166,2.79-2.166,4.747,0,1.837,.548,3.166,1.646,3.987,.804,.604,1.764,.906,2.88,.906,1.005,0,1.864-.266,2.578-.798,.914-.7,1.371-1.69,1.371-2.972,0-.628-.184-1.341-.549-2.139-.384-.894-1.161-1.849-2.331-2.863-1.226-1.015-1.938-1.521-2.14-1.521Zm5.403-9.822c-1.024,.097-1.811-.749-2.358-2.537-.329-.58-.641-.966-.933-1.16-.366-.241-.823-.362-1.371-.362-.896,0-1.646,.254-2.249,.761-.567,.508-.851,1.137-.851,1.885,0,.701,.183,1.317,.549,1.849,.146,.267,.785,.822,1.92,1.667,.091,.073,.283,.23,.575,.472,.348,.266,.549,.423,.604,.471,.092-.072,.256-.168,.494-.29,.109-.048,.201-.084,.274-.108,.932-.362,1.627-.64,2.084-.834,.914-.482,1.371-.99,1.371-1.521,0-.073-.036-.169-.109-.29Z" fill="#fff"/>
    <path d="M17.061,404.747c.182-.918,.521-1.377,1.016-1.377,.676,0,1.48,.398,2.412,1.196,1.336,1.039,2.002,2.223,2.002,3.552,0,.435-.092,1.015-.273,1.739-.494,2.899-.988,6.537-1.48,10.91-.549,4.494-.896,7.877-1.043,10.147-.072,1.281-.174,2.127-.301,2.537-.494,1.813-1.326,2.719-2.496,2.719-.859,0-1.619-.483-2.277-1.45-.604-.942-.904-2.126-.904-3.552,0-.58,.064-1.026,.191-1.341,.072-.387,.32-.882,.74-1.486,.293-1.98,.539-3.901,.74-5.763-1.15,.604-2.258,.906-3.318,.906-1.664,0-3.199-.483-4.607-1.45-1.042-.748-1.828-1.812-2.358-3.189-.658-1.521-.987-3.237-.987-5.146,0-3.237,.832-5.822,2.496-7.756,1.518-1.813,3.4-2.718,5.65-2.718,1.389,0,2.988,.507,4.799,1.521Zm-.219,5.256c-.238-.266-.559-.556-.961-.87-.676-.604-1.408-.906-2.193-.906-1.135,0-2.049,.521-2.742,1.559-.586,.87-.879,2.042-.879,3.516,0,1.088,.119,1.885,.357,2.393,.584,1.208,1.498,1.812,2.742,1.812,.75,0,1.49-.302,2.221-.906,.477-.386,.797-.772,.961-1.159l.137-1.486,.357-3.95Z" fill="#fff"/>
    <path d="M13.633,450.951c1.023,1.063,1.535,2.223,1.535,3.479,0,.484-.037,1.45-.109,2.9-.074,1.256-.109,2.223-.109,2.899,1.023-.097,2.084-.146,3.182-.146,1.9,0,3.291,.242,4.168,.725,1.244,.677,1.865,1.692,1.865,3.045,0,.87-.219,1.595-.658,2.175-.365,.483-.805,.725-1.316,.725-.439,0-1.025-.145-1.756-.435-.512-.193-1.207-.29-2.084-.29-1.391,0-2.486,.145-3.291,.435,0,.967,.037,4.543,.109,10.729,0,.772-.109,1.353-.328,1.739-.439,.87-.988,1.305-1.646,1.305-1.023,0-1.793-.773-2.305-2.319-.219-.676-.328-1.401-.328-2.175,0-.482,.109-.87,.328-1.159v-7.249c-.512,.097-1.279,.145-2.303,.145-2.487,0-4.279-.482-5.376-1.449-.658-.58-.987-1.354-.987-2.319,0-.58,.146-1.016,.439-1.306,.292-.289,.731-.435,1.316-.435,.22,.193,.402,.339,.549,.435,.365,.194,.95,.146,1.755-.145,1.463-.387,3-.773,4.607-1.16,0-2.223,.037-4.784,.111-7.684,0-.29-.111-.531-.33-.725-.512-.29-.768-.773-.768-1.45,0-.579,.146-1.015,.439-1.305,.219-.192,.512-.29,.877-.29,.73,0,1.535,.436,2.414,1.306Z" fill="#fff"/>
    <path d="M8.367,505.997h9.654c.878,0,1.316,.58,1.316,1.74s-.438,1.739-1.316,1.739H8.367c-.877,0-1.316-.579-1.316-1.739s.439-1.74,1.316-1.74Z" fill="#fff"/>
    <path d="M12.317,629.675c.949,1.45,1.426,3.189,1.426,5.22,0,2.223-.512,4.011-1.535,5.364-.951,1.256-2.195,1.884-3.73,1.884-1.463,0-2.707-.676-3.73-2.029-1.098-1.449-1.573-3.527-1.427-6.233-.585-.483-.877-1.111-.877-1.885,0-.58,.11-.967,.329-1.16s.585-.241,1.097-.145c.365-.773,.841-1.45,1.426-2.03,.878-.87,1.902-1.305,3.073-1.305,1.607,0,2.924,.773,3.949,2.319Zm11.738-1.159c.658,1.063,.986,2.078,.986,3.044,0,1.063-.293,1.934-.877,2.609-2.268,2.707-5.119,6.477-8.557,11.309-2.633,3.576-5.156,7.104-7.57,10.583-.586,.676-1.023,1.208-1.316,1.595-.586,.87-1.244,1.305-1.975,1.305-.586,0-1.061-.242-1.427-.725-.292-.387-.438-.919-.438-1.595,0-.966,.219-1.836,.658-2.609,.512-.87,.914-1.45,1.207-1.74,.292,0,.585-.145,.877-.435,1.317-1.45,3.84-4.784,7.57-10.003,4.242-5.8,7.057-9.714,8.447-11.743,.146-.193,.184-.436,.109-.726-.219-.289-.328-.628-.328-1.015s.072-.676,.219-.869c.219-.29,.512-.436,.877-.436,.439,0,.951,.483,1.537,1.45Zm-15.688,1.739c-1.025,0-1.793,.822-2.305,2.465-.146,.967-.402,1.498-.769,1.595,0,1.16,.22,2.175,.658,3.044,.585,1.16,1.354,1.74,2.304,1.74,.805,0,1.537-.435,2.195-1.305,.512-.677,.768-1.788,.768-3.335,0-1.063-.219-2.029-.658-2.899-.439-.869-1.17-1.305-2.193-1.305Zm16.564,16.382c.951,1.45,1.426,3.189,1.426,5.22,0,2.224-.512,4.011-1.535,5.364-.951,1.256-2.193,1.885-3.73,1.885-1.463,0-2.705-.677-3.73-2.03-1.096-1.449-1.572-3.527-1.426-6.233-.584-.483-.877-1.111-.877-1.885,0-.58,.109-.967,.328-1.16,.146-.096,.367-.145,.658-.145,.293,0,.477-.097,.549-.29,.293-.58,.732-1.16,1.316-1.74,.879-.869,1.902-1.305,3.072-1.305,1.609,0,2.926,.773,3.949,2.319Zm-6.254,3.045c-.146,.967-.402,1.498-.768,1.595,0,1.16,.221,2.175,.658,3.045,.586,1.159,1.354,1.739,2.305,1.739,.805,0,1.535-.435,2.193-1.305,.512-.676,.768-1.788,.768-3.335,0-1.063-.219-2.029-.658-2.899-.438-.869-1.17-1.305-2.193-1.305s-1.793,.822-2.305,2.465Z" fill="#fff"/>
    <path d="M23.176,579.195l-17.224,35.084H3.21l17.224-35.084h2.742Z" fill="#fff"/>
    <path d="M14.401,561.479c.292,.677,.438,1.644,.438,2.899,0,1.354-.183,2.368-.549,3.044-.292,.58-.658,.87-1.097,.87-.513,0-.915-.435-1.207-1.305-.293-.87-.438-2.078-.438-3.624,0-.967,.036-1.74,.109-2.32,.073-.579,.292-.772,.658-.579,.22-.193,.439-.29,.658-.29,.585,0,1.061,.435,1.427,1.305Z" fill="#fff"/>
  </g>
</svg>