<?xml version="1.0" encoding="UTF-8"?>
<svg id="Layer_2" data-name="Layer 2" xmlns="http://www.w3.org/2000/svg" viewBox="0 0 107.477 32.432">
  <g id="game_note_txt">
    <g id="game_note_txt_fuusen">
      <path d="M16.653,31.351c-1.951,0-4.077-.601-6.691-1.89l-1.498-.739-2.51,1.674L0,21.963l2.761-1.761c1.333-.851,3.918-2.805,6.083-4.751l.913-.82c.085-.591,.238-1.194,.459-1.807l-.936-.315,1.952-2.245c-.609-.288-1.213-.596-1.796-.913l-2.88-1.572L11.306,0l2.521,1.154c3.138,1.434,6.639,2.426,9.86,2.789l3.705,.42-1.099,3.704,.517,.121-.637,.287-1.363,4.595c3.804,1.903,6.544,5.099,7.952,9.294l.83,2.474-8.816,4.855-.862-2.584c-1.288,2.56-3.989,4.243-7.262,4.243Z" fill="#262626"/>
      <path d="M36.974,32.432l-1.23-2.169c-.295-.52-1.174-1.678-1.866-2.395l-3.784-3.914,5.287-1.294c5.308-1.299,7.684-3.39,7.684-4.885,0-.222-.021-.375-.042-.471-.043-.005-.096-.007-.161-.007-1.733,0-4.592,.651-7.483,1.687-.441,.468-.976,.822-1.508,1.034l-3.063,1.222-3.467-10.26,3.207-.869c.153-.042,.371-.1,.643-.172l-.223-.013L33.484,.482l2.542,.145c4.164,.238,8.634,.989,11.666,1.959l2.837,.908-1.542,5.758c.56,.353,1.074,.764,1.539,1.23,1.215,1.222,2.66,3.448,2.639,7.115-.035,6.621-4.68,11.37-13.806,14.115l-2.387,.718Z" fill="#262626"/>
      <path d="M67.393,30.994c-4.022,0-11.51,0-12.301-9.155-.062-.579-.109-1.313-.145-2.197-.435,.089-.818,.171-1.108,.239l-3.271,.775-1.558-9.679,3.119-.472c.68-.104,1.626-.255,2.65-.425-.016-1.541-.027-3.03-.027-4.187V2.523l10.153,.764-.209-2.449,10.746,.353v3.024c0,.337-.059,1.119-.535,1.904,.009,.193,.016,.388,.022,.586,.691-.107,1.335-.204,1.896-.278l3.287-.441,.721,9.767-3.104,.24c-.723,.056-1.641,.153-2.689,.283-.054,1.35-.166,2.515-.387,3.517-.11,.479-.26,.93-.444,1.354l3.063-.573,.251,9.742-2.842,.326c-2.65,.305-5.703,.35-7.288,.35Zm-2.202-23.583c-.12,.337-.292,.67-.524,.981,.184-.031,.37-.061,.555-.092l.01-.002c-.013-.298-.027-.594-.042-.887Z" fill="#262626"/>
      <path d="M83.925,31.818l-9.572-2.993,1.021-3.027c1.661-4.928,5.16-15.042,6.096-17.677,.585-1.591,1.382-4.084,1.559-4.81l.737-3.025,11.036,2.648-1.069,3.228c-.323,.977-.962,1.742-1.821,2.229-.37,.901-.798,1.978-1.238,3.104,3.591,.16,6.121,2.813,6.338,6.62,.138-.415,.28-.883,.422-1.406l1.184-4.359,3.661,2.645c.918,.663,1.901,1.254,2.695,1.62l2.502,1.154-.83,2.627c-2.252,7.125-6.022,10.737-11.204,10.737-5.061,0-8.461-3.157-8.461-7.856v-.029c-.381,.577-.719,1.215-.931,1.837l-.327,.996c-.282,.853-.594,1.799-.88,2.732l-.919,3.007Z" fill="#262626"/>
      <path d="M16.653,28.539c-1.503,0-3.234-.508-5.446-1.599l-.25-.123,.093-.262c.276-.776,.499-1.653,.703-2.758l.076-.411,.373,.189c1.75,.889,3.196,1.204,3.901,1.204,1.092,0,1.558-.408,1.558-1.365,0-1.088-.87-2.285-2.45-3.373-1.83-1.241-2.721-2.657-2.721-4.329,0-.966,.3-1.995,.917-3.146l.12-.223,3.723,1.088-.184,.341c-.294,.544-.567,1.121-.567,1.638,0,.767,.608,1.494,2.032,2.434,2.245,1.448,3.386,3.387,3.386,5.763,0,3.389-2.728,4.933-5.263,4.933Zm-9.981-2.002l-2.675-3.788,.276-.177c1.463-.934,4.149-2.961,6.45-5.029l.268-.242,2.077,3.101-.184,.181c-1.237,1.218-3.116,2.875-5.44,4.797-.032,.448-.206,.78-.519,.989l-.253,.168Zm19.705-.938l-.119-.355c-1.155-3.463-3.164-5.966-5.659-7.045l-.387-.167,2.43-2.864,.213,.092c3.488,1.512,5.991,4.279,7.24,7.999l.083,.247-3.802,2.094Zm-8.57-13.187l-3.649-1.228,.306-.353c.406-.468,1.201-1.138,1.84-1.581-1.577-.472-3.727-1.388-5.522-2.368l-.288-.157,1.911-3.129,.252,.115c3.4,1.555,7.205,2.631,10.714,3.027l.37,.042-1.146,3.862-.268-.039c-.177-.026-.355-.052-.532-.052-1.265,0-2.778,.677-3.853,1.727l-.137,.134Z" fill="#fff"/>
      <path d="M38.312,29.092l-.123-.217c-.441-.778-1.49-2.134-2.291-2.961l-.378-.392,.529-.129c6.246-1.528,9.828-4.304,9.828-7.617,0-2.123-1.071-3.291-3.015-3.291-2.242,0-5.786,.829-9.285,2.168-.103,.353-.466,.64-.748,.753l-.306,.122-1.559-4.615,.32-.087c3.952-1.071,9.406-2.321,11.772-2.321,2.306,0,4.2,.679,5.477,1.963,1.221,1.227,1.833,2.948,1.821,5.116-.028,5.316-3.889,9.058-11.803,11.437l-.239,.072Zm7.708-19.629l-.317-.111c-2.692-.94-7.115-1.759-10.755-1.992l-.38-.023,1.044-3.915,.254,.013c3.944,.226,8.148,.927,10.97,1.83l.283,.092-1.099,4.106Z" fill="#fff"/>
      <path d="M67.393,28.181c-4.186,0-8.929,0-9.498-6.584-.133-1.228-.189-3.304-.239-5.366-.487,.099-1.016,.204-1.541,.308-1.115,.221-2.267,.449-2.925,.605l-.327,.078-.626-3.889,.313-.048c1.227-.186,3.275-.524,5.067-.834-.027-2.296-.052-4.81-.052-6.559v-.337l5.051,.38-.027,.315c-.044,.52-.421,.741-.782,.852-.043,.868-.048,1.982-.054,3.156-.002,.493-.005,.991-.01,1.479,1.206-.208,2.554-.431,3.942-.663l2.46-.41c-.084-2.244-.19-4.733-.347-6.56l-.031-.35,4.862,.159v.303c0,.447-.295,.687-.592,.833,.072,1.139,.106,2.496,.139,3.812l.031,1.124,1.227-.195c1.39-.222,2.723-.435,3.765-.575l.328-.044,.295,3.995-.31,.024c-1.287,.1-3.14,.32-5.24,.62-.005,2.267-.073,4.055-.365,5.38-.455,1.975-1.93,3.105-4.045,3.105-.466,0-2.146-.082-4.161-1.135l-.227-.118,.072-.247c.198-.676,.302-2.004,.345-2.736l.031-.497,.435,.242c1.168,.653,2.314,.896,2.762,.896,.452,0,.852-.327,.93-.762,.112-.693,.178-1.943,.187-3.538-2.566,.413-4.91,.819-6.521,1.105,.032,2.671,.09,4.784,.16,5.824,.203,2.325,1.058,3.068,3.662,3.174,.416,.029,.953,.052,1.5,.028,2.115,0,5.105-.137,7.148-.519l.36-.067,.1,3.872-.284,.032c-1.833,.211-4.374,.332-6.967,.332Z" fill="#fff"/>
      <path d="M95.443,28.319c-3.484,0-5.648-1.932-5.648-5.044,0-.243,.026-.951,.052-1.678,.028-.757,.057-1.534,.057-1.814,0-1.531-.552-1.531-.787-1.531-2.296,0-4.884,3.45-5.729,5.923l-.336,1.023c-.288,.872-.607,1.837-.898,2.791l-.093,.3-4.125-1.29,.101-.303c1.659-4.917,5.148-15.006,6.082-17.634,.579-1.572,1.422-4.185,1.641-5.085l.074-.302,5.336,1.279-.107,.323c-.171,.516-.597,.814-1.267,.886-.968,2.246-2.675,6.686-3.795,9.694,1.329-.978,2.908-1.558,4.326-1.558,2.399,0,3.888,1.669,3.888,4.355,0,.243-.026,.952-.052,1.681-.028,.756-.057,1.532-.057,1.812,0,1.747,.789,1.971,1.475,1.971,1.827,0,3.364-2.245,4.568-6.674l.118-.436,.366,.264c1.074,.776,2.198,1.449,3.165,1.895l.25,.116-.083,.262c-1.866,5.903-4.653,8.773-8.522,8.773Z" fill="#fff"/>
    </g>
  </g>
</svg>