<?xml version="1.0" encoding="UTF-8"?>
<svg id="Layer_2" data-name="Layer 2" xmlns="http://www.w3.org/2000/svg" viewBox="0 0 103.942 33.293">
  <g id="game_note_txt">
    <g id="game_note_txt_katsu_big">
      <path d="M8.223,32.408l-1.995-1.906c-.427-.408-1.558-1.268-2.269-1.691l-3.959-2.35,3.647-2.811c2.46-1.898,4.273-4.341,5.484-7.409H3.502V6.746h7.648c.038-.582,.069-1.193,.104-1.879l.205-3.94,11.151,.951-.613,3.38c-.103,.563-.323,1.075-.643,1.516l2.777-.035,1.1-.458,6.569,2.286-.975,2.926c-.06,.181-.133,.356-.218,.525-.566,11.024-1.815,14.204-2.714,15.635-1.506,2.366-3.917,3.661-6.798,3.661-1.62,0-3.495-.212-5.424-.615l-2.562-.535,.064-2.167c-.834,.923-1.766,1.818-2.81,2.668l-2.139,1.743Zm9.342-11.111c.792,.152,1.552,.26,2.098,.322,.234-.958,.547-2.767,.771-5.377h-1.011c-.451,1.581-1.042,3.3-1.858,5.055Z" fill="#262626"/>
      <path d="M35.468,31.719l-1.402-2.158c-.256-.394-.941-1.218-1.24-1.466l-4.171-3.442,5.066-1.895c1.649-.616,3.081-1.411,4.315-2.408l-1.487,.306-.031-.258-5.451,1.519-.685-3.264c-.294-1.403-.959-3.635-1.66-5.186l-1.487-3.293,8.623-2.475,.148,.318,6.794-1.32,.884,2.57c.032,.093,.063,.189,.095,.287l.596-2.636,9.855,3.183-1.139,3.06c-.216,.58-.565,1.076-1.01,1.464-2.546,8.015-7.211,13.3-14.226,16.13l-2.388,.963Z" fill="#262626"/>
      <path d="M68.303,32.386h-6.866l-.886-.784c-3.823-3.378-6.199-9.249-6.199-15.323s2.375-11.943,6.198-15.323l.887-.784h6.866V4.897l-1.123,.937c-1.993,1.664-4.323,5.399-4.323,10.445s2.327,8.784,4.319,10.441l1.127,.936v4.729Z" fill="#262626"/>
      <path d="M67.374,33.293l-1.36-2.571c-.278-.526-.988-1.415-1.6-1.902l-4.194-3.329,4.962-2.014c3.54-1.437,5.828-3.373,7.184-6.191h-8.611V7.626h10.349c.022-.93,.028-1.877,.034-2.851l.048-4.775,11.166,.701-.627,3.456c-.098,.541-.337,1.121-.742,1.636-.011,.605-.024,1.216-.044,1.832h10.656v9.661h-8.414c1.58,2.911,3.827,4.796,6.886,5.82l5.089,1.705-3.994,3.584c-.453,.406-1.328,1.582-1.733,2.329l-1.316,2.422-2.568-1.002c-3.855-1.506-6.918-3.903-9.257-7.261-2.223,3.102-5.286,5.492-9.249,7.238l-2.662,1.172ZM80.341,1.099s-.004,0-.006,0h.006Z" fill="#262626"/>
      <path d="M96.847,32.386h-6.857v-4.725l1.123-.936c1.993-1.665,4.323-5.399,4.323-10.445s-2.327-8.785-4.319-10.441l-1.127-.938V.172h6.857l.884,.773c3.831,3.352,6.211,9.228,6.211,15.334s-2.38,11.983-6.212,15.334l-.883,.773Z" fill="#262626"/>
      <path d="M8.371,28.659l-.2-.19c-.629-.601-1.926-1.57-2.776-2.075l-.396-.234,.364-.282c3.857-2.974,6.332-7.048,7.558-12.448H6.315v-3.871h7.385c.211-1.548,.279-2.883,.363-4.548l.053-1.033,5.175,.441-.061,.338c-.043,.234-.211,.628-.843,.806-.04,.43-.073,.83-.105,1.216-.081,.969-.151,1.82-.291,2.809h6.617l.713-.297,2.934,1.021-.098,.293c-.064,.192-.176,.364-.32,.497-.377,8.031-1.18,13.235-2.325,15.054-.977,1.536-2.504,2.346-4.417,2.346-1.43,0-3.107-.192-4.85-.555l-.256-.054,.007-.262c.026-.885-.104-2.43-.245-3.412l-.065-.45,.444,.101c1.688,.387,3.629,.625,4.276,.625,.697,0,1.176-.151,1.564-.927,.536-1.074,1.216-4.691,1.465-10.137h-6.191c-1.605,6.837-4.282,11.487-8.66,15.056l-.214,.175Z" fill="#fff"/>
      <path d="M36.564,28.244l-.14-.216c-.357-.549-1.218-1.614-1.808-2.102l-.417-.344,.507-.189c6.246-2.335,9.951-6.949,11.659-14.518l.076-.333,4.128,1.333-.114,.306c-.112,.303-.391,.505-.741,.552-2.235,7.863-6.343,12.764-12.911,15.414l-.239,.096Zm-3.361-9.841l-.068-.327c-.386-1.839-1.146-4.21-1.849-5.767l-.148-.33,3.189-.916,.113,.242c.742,1.59,1.591,4.125,1.974,5.897l.063,.288-3.273,.912Zm5.771-1.117l-.04-.337c-.221-1.82-.769-4.294-1.334-6.018l-.111-.337,3.448-.67,.088,.257c.58,1.685,1.111,4.351,1.335,6.113l.037,.287-3.423,.704Z" fill="#fff"/>
      <path d="M65.491,29.573h-2.99l-.089-.078c-3.187-2.817-5.248-8.005-5.248-13.216s2.061-10.398,5.248-13.217l.089-.078h2.99v.597l-.112,.093c-3.24,2.704-5.333,7.652-5.333,12.604s2.094,9.909,5.333,12.603l.112,.094v.597Z" fill="#fff"/>
      <path d="M68.636,29.664l-.135-.256c-.493-.933-1.477-2.106-2.338-2.789l-.42-.333,.497-.201c5.629-2.285,8.813-5.98,9.995-11.609h-9.668v-4.036h10.226c.133-1.863,.145-3.784,.157-5.645l.016-1.801,5.052,.317-.062,.345c-.049,.269-.226,.602-.769,.769-.024,1.962-.055,3.977-.217,6.014h10.811v4.036h-9.769c1.781,5.909,5.107,9.608,10.16,11.299l.509,.171-.399,.359c-.763,.685-1.819,2.145-2.327,3.079l-.132,.243-.256-.101c-4.821-1.882-8.108-5.251-10.295-10.568-1.847,4.866-5.245,8.335-10.369,10.591l-.266,.117Z" fill="#fff"/>
      <path d="M95.79,29.573h-2.987v-.597l.112-.094c3.24-2.704,5.333-7.651,5.333-12.603s-2.094-9.91-5.333-12.604l-.112-.094v-.597h2.987l.089,.078c3.19,2.791,5.25,7.979,5.25,13.217s-2.061,10.427-5.25,13.217l-.089,.077Z" fill="#fff"/>
    </g>
  </g>
</svg>