<?xml version="1.0" encoding="UTF-8"?>
<svg id="Layer_2" data-name="Layer 2" xmlns="http://www.w3.org/2000/svg" viewBox="0 0 98.002 34.418">
  <g id="game_note_txt">
    <g id="game_note_txt_fuusen_big">
      <path d="M15.314,34.418l-1.935-2.25c-2.304-2.679-6.28-6.329-10.129-9.299-1.959-1.534-3.251-3.115-3.251-5.885,0-1.881,.743-3.497,2.272-4.941,2.83-2.632,7.677-7.435,9.672-9.534l1.782-1.874,9.375,6.031-2.755,2.742c-.557,.553-1.221,.928-1.949,1.11-1.135,1.034-2.446,2.205-3.731,3.351-1.093,.975-2.166,1.934-3.093,2.773,3.322,2.456,6.872,5.521,9.907,8.556l2.509,2.51-8.674,6.71Z" fill="#262626"/>
      <path d="M27.414,34.01l-1.384-1.978c-.386-.552-1.372-1.597-1.99-2.108l-4.295-3.556,5.22-1.79c-1.425-1.467-2.305-3.481-2.305-5.698-.012-1.351,.297-2.661,.894-3.838-1.143,.042-1.964,.073-2.117,.082l-3.215,.179-.262-9.487,3.106-.099c.968-.031,2.148-.052,3.376-.076,.978-.018,1.987-.037,2.941-.061,.565-.024,1.276-.049,2.07-.073-.013-.208-.027-.4-.042-.57l-.317-3.571,11.497,.557-.422,3.3c2.093-.054,3.874-.094,4.813-.111l3.182-.057V14.714l-3.23-.109c-.771-.026-1.784-.032-2.921-.026-.746,0-1.556,.006-2.407,.017l.044,1.31c.38,1.35,.428,2.714,.428,3.662,0,1.361-.143,3.297-.822,4.844-1.579,3.943-4.977,7.051-9.578,8.757l-2.264,.84Zm2.855-15.342c.174,.35,.648,.712,.995,.725,.389-.007,.718-.334,.758-.543-.004-.315-.306-.757-.873-.757-.378,0-.751,.314-.88,.575Z" fill="#262626"/>
      <path d="M52.422,33.533l-9.673-3.425,1.582-3.163c1.525-3.051,2.778-6.658,3.685-10.582-.312-.004-.607-.011-.878-.027l-2.897-.167-.16-9.556,3.376,.211c.5,.032,1.256,.043,2.061,.046,.074-.718,.146-1.478,.215-2.258l.269-3.11,10.706,.918-.248,2.924,4.012-3.704,1.119,.845,2.69-2.484,2.08,1.55c1.353,1.007,3.185,2.679,4.272,4.349l1.479,2.272-3.311,2.898v9.348l-3.213-.09c-.49-.013-.989-.015-1.49-.004l-2.211,2.357c.223,.004,.469,.006,.736,.006,1.184,0,2.391-.054,3.312-.149l3.389-.347,.157,9.834-2.986,.178c-.979,.06-2.023,.089-3.102,.089-1.913,0-4.595-.096-6.504-.553-2.908-.686-4.993-2.589-5.734-5.085-.509,1.508-1.041,2.913-1.583,4.182l-1.152,2.697Z" fill="#262626"/>
      <path d="M92.076,33.175l-2.631-2.375c-.436-.394-.889-.768-1.355-1.121-1.326,1.724-3.711,2.971-7.524,2.971-5.45,0-9.258-3.094-9.258-7.526,0-2.112,.92-3.944,2.483-5.275-1.389-.846-2.402-2.206-2.373-4.395,0-.343,.032-.671,.09-.985h-1.218V4.928l3.329,.217c1.428,.094,3.745,.103,5.612,.104-.001-.1-.001-.195-.001-.284V1.697l10.83,.483-.242,2.601c1.36-.139,2.612-.317,3.807-.566l3.391-.707,.986,9.547-2.019,.343,.568,6.312-2.711,.576c-.587,.125-1.277,.243-2.042,.349,1.267,.682,2.504,1.464,3.68,2.325l2.462,1.804-5.864,8.409Z" fill="#262626"/>
      <path d="M15.706,30.559l-.193-.225c-2.418-2.811-6.556-6.616-10.543-9.692-1.653-1.295-2.156-2.15-2.156-3.658,0-1.095,.429-1.987,1.391-2.896,2.849-2.649,7.758-7.515,9.779-9.641l.178-.188,4.477,2.881-.275,.273c-.316,.315-.718,.452-1.188,.409-1.264,1.166-2.849,2.579-4.382,3.949-1.574,1.404-3.061,2.732-4.174,3.763l-.269,.266c-.367,.359-.869,.85-.869,1.045,0,.349,1.121,1.128,1.544,1.421,3.433,2.449,7.247,5.699,10.466,8.92l.251,.251-4.036,3.121Z" fill="#fff"/>
      <path d="M28.473,30.618l-.138-.198c-.533-.762-1.678-1.981-2.502-2.662l-.429-.355,.527-.181c2.397-.822,4.243-1.896,5.336-3.088-.195,.043-.395,.066-.587,.066-2.505,0-5.208-2.034-5.208-5.319-.013-1.5,.554-2.908,1.598-3.96,1.063-1.073,2.529-1.688,4.023-1.688,.48,0,.986,.089,1.464,.255-.014-.452-.038-1.106-.057-1.55-2.471,.051-10.763,.35-11.234,.38l-.324,.021-.099-3.799,.311-.01c.957-.031,2.125-.052,3.339-.074,.984-.018,2-.038,2.961-.062,1.222-.051,3.043-.104,4.917-.156-.014-.753-.067-2.51-.159-3.546l-.032-.358,5.234,.254-.043,.334c-.037,.291-.306,.638-.748,.804-.013,.592,.004,1.466,.027,2.41,3.566-.107,7.011-.186,8.381-.21l.318-.006v3.887l-.323-.011c-1.893-.063-5.125-.035-8.33,.048l.153,4.534c.371,1.093,.414,2.343,.414,3.193,0,.73-.059,2.557-.605,3.76-1.264,3.207-4.093,5.77-7.96,7.205l-.226,.084Zm2.786-14.037c-1.221,.026-2.029,.919-2.053,2.278,0,1.262,1.008,2.047,1.943,2.047,1.147,0,1.888-.826,1.888-2.107,0-1.033-.202-2.218-1.778-2.218Z" fill="#fff"/>
      <path d="M50.873,30l-4.185-1.481,.158-.316c2.065-4.131,3.656-9.194,4.609-14.663-.488,.01-1.339,.015-2.543,.015-.584,0-1.141,0-1.613-.027l-.29-.017-.065-3.901,.338,.022c.87,.054,2.327,.054,3.611,.054,.214,0,.441-.007,.671-.013,.153-.005,.305-.01,.458-.012,.178-1.329,.359-3.022,.513-4.805l.027-.311,5.106,.438-.027,.311c-.033,.396-.341,.726-.801,.881-.122,.869-.295,2.042-.459,3.102,2.423-.326,4.329-.762,5.815-1.331l.348-.133,.781,4.073-.261,.085c-1.884,.619-4.492,1.094-7.369,1.343-1.156,6.143-2.867,12.114-4.707,16.417l-.115,.269Zm16.522-.52c-2.49,0-4.568-.17-5.85-.476-2.454-.579-3.9-2.257-3.87-4.49,.032-1.462,.685-2.98,1.84-4.274l.142-.157,3.586,1.306-.323,.345c-.773,.823-1.18,1.586-1.18,2.207,0,1.056,.731,1.558,4.885,1.558,1.276,0,2.587-.06,3.599-.164l.339-.034,.065,4.077-.299,.018c-.923,.055-1.91,.083-2.933,.083Zm-7.018-10.87l-.894-3.568,.28-.089c2.675-.856,6.555-1.411,9.917-1.362l.31,.002v3.932l-.321-.009c-3.121-.088-6.389,.281-8.983,1.007l-.309,.087Zm6.202-7.505l-.192-.31c-.621-.997-2.354-2.77-3.335-3.521l-.295-.225,1.895-1.749,.208,.157c1.288,.972,2.842,2.539,3.617,3.645l.162,.232-2.059,1.77Zm3.838-1.686l-.199-.289c-.609-.889-2.203-2.614-3.346-3.507l-.289-.227,1.891-1.744,.208,.155c1.455,1.083,2.866,2.507,3.596,3.628l.148,.227-2.008,1.758Z" fill="#fff"/>
      <path d="M80.566,29.838c-3.855,0-6.445-1.895-6.445-4.713,0-3.113,3.312-4.741,6.583-4.741,.504,0,1.143,.013,1.802,.109-.006-.415-.024-.853-.042-1.311-.01-.244-.02-.494-.028-.748-.646,.018-1.295,.018-1.842,.018-3.328-.049-6.398-.441-6.364-2.958,0-1.283,.929-2.417,3.011-3.673l.15-.09,3.07,1.591-.594,.264c-1.223,.543-1.492,.951-1.492,1.062,0,.237,.889,.347,2.795,.347h.013c.365,0,.747,0,1.146-.013l-.139-3.286c-.775,.02-1.617,.02-2.396,.02-.975,0-2.183-.015-3.357-.028-1.112-.013-2.195-.027-3.024-.027h-.313v-3.727l.333,.022c1.667,.109,4.27,.109,6.36,.109,.768,0,1.558-.021,2.294-.044-.026-1.105-.048-2.299-.048-3.053v-.327l4.945,.221-.031,.327c-.021,.226-.145,.604-.714,.791v1.901c3.042-.182,5.576-.413,7.958-.909l.338-.071,.396,3.827-.288,.049c-2.257,.385-4.783,.629-8.403,.814,.004,1.075,.024,2.133,.048,3.188,2.435-.203,4.978-.552,6.558-.903l.348-.077,.331,3.683-.271,.057c-1.621,.345-4.121,.63-6.896,.789,.026,.984,.078,1.893,.125,2.705l.021,.345c2.502,.851,5.027,2.181,7.311,3.855l.247,.181-2.468,3.54-.264-.238c-1.428-1.29-3.008-2.389-4.703-3.271v.289c-.063,2.614-2.273,4.108-6.061,4.108Zm-.11-6.244c-1.556,0-2.686,.62-2.686,1.476,0,1.007,1.521,1.365,2.823,1.365,1.4,0,2.025-.522,2.025-1.696l-.022-.828c-.83-.209-1.566-.317-2.141-.317Z" fill="#fff"/>
    </g>
  </g>
</svg>