<?xml version="1.0" encoding="UTF-8"?>
<svg id="Layer_2" data-name="Layer 2" xmlns="http://www.w3.org/2000/svg" viewBox="0 0 24.589 32.166">
  <g id="game_note_txt">
    <g id="game_note_txt_do">
      <path d="M9.935,32.166H0V1.584l11.012,.536-.192,2.361,2.384-2.038,.441,.372,3.368-2.815,2.008,1.722c1.284,1.101,3.01,2.808,4.004,4.296l1.564,2.345-6.421,5.313-.249-.368-.338,.286c.435,.215,.851,.427,1.245,.634l2.878,1.512-5.143,8.908-2.708-1.566c-1.036-.599-2.437-1.321-3.918-2.029v11.113Z" fill="#262626"/>
      <path d="M7.123,29.353H2.813V4.536l5.161,.251-.027,.322c-.022,.275-.164,.73-.824,.917v6.633l.261-.356,.22,.078c2.961,1.051,7.13,2.874,9.913,4.337l.288,.151-2.272,3.936-.271-.157c-2.07-1.198-5.358-2.782-8.14-3.931v12.637ZM15,12.092l-.195-.286c-.685-1-2.244-2.811-3.303-3.737l-.273-.238,1.99-1.7,.203,.17c1.104,.93,2.638,2.599,3.491,3.799l.166,.234-2.078,1.757Zm3.763-2.56l-.193-.285c-.635-.939-2.18-2.699-3.3-3.65l-.282-.24,2.001-1.673,.201,.172c1.176,1.008,2.712,2.55,3.494,3.722l.156,.234-2.078,1.719Z" fill="#fff"/>
    </g>
  </g>
</svg>