<?xml version="1.0" encoding="UTF-8"?>
<svg id="Layer_2" data-name="Layer 2" xmlns="http://www.w3.org/2000/svg" viewBox="0 0 362.344 33.439">
  <g id="game_note_txt">
    <g id="game_note_txt_renda_big">
      <path d="M4.722,33.439L.599,24.633l2.236-1.492c.74-.493,1.425-.977,2.047-1.445v-1.438H1.774V10.955h3.9c-.717-.845-1.727-1.864-2.702-2.703L0,5.698,7.601,.081l1.874,1.479c.354,.278,.742,.601,1.145,.951h5.483V.043l10.495,.515-.195,1.953h6.429V11.428h-1.265v5.549h1.622v5.15l2.849-.237-2.491,4.974c-.233,.465-.644,1.693-.762,2.361l-.432,2.449-2.482,.129c-2.015,.106-5.027,.17-8.058,.17-5.154,0-8.951,0-12.002-2.034-.184,.164-.366,.323-.545,.48-.303,.576-.817,1.15-1.675,1.581l-2.87,1.438Z" fill="#262626"/>
      <path d="M46.316,32.386h-2.711l-.383-2.684c-.051-.355-.25-1.013-.497-1.625-1.215,4.309-5.764,4.309-8.923,4.309h-2.662l-.423-2.628c-.077-.479-.426-1.586-.745-2.242l-2.277-4.702,2.474,.104-2.051-7.689,2.501-.444h-1.344V5.426h4.181V.049l10.632,.504-.182,1.82h17.555V11.869h-4.593v13.431c0,7.086-5.605,7.086-10.551,7.086Zm-3.284-9.672l2.223,.067c.645,.02,1.31,.032,1.924,.04v-2.332l-4.147,1.123v1.101Zm3.823-8.895l.323,2.999v-4.95h-.323v1.951Z" fill="#262626"/>
      <path d="M75.567,32.386h-6.865l-.886-.782c-3.824-3.378-6.2-9.25-6.2-15.325s2.375-11.945,6.2-15.323l.886-.784h6.865V4.897l-1.123,.936c-1.993,1.665-4.323,5.399-4.323,10.446s2.327,8.784,4.319,10.442l1.127,.936v4.729Z" fill="#262626"/>
      <path d="M74.638,33.293l-1.36-2.571c-.278-.526-.988-1.415-1.6-1.902l-4.194-3.329,4.962-2.014c3.54-1.437,5.828-3.374,7.184-6.191h-8.611V7.626h10.349c.022-.93,.028-1.877,.034-2.852l.048-4.774,11.166,.701-.627,3.457c-.098,.541-.337,1.122-.742,1.637-.011,.605-.024,1.216-.044,1.831h10.656v9.661h-8.414c1.58,2.913,3.827,4.796,6.886,5.82l5.089,1.705-3.994,3.584c-.453,.406-1.328,1.582-1.733,2.329l-1.316,2.422-2.568-1.002c-3.855-1.506-6.918-3.903-9.257-7.261-2.223,3.102-5.286,5.492-9.249,7.238l-2.662,1.172ZM87.604,1.099s-.004,.001-.006,.001h.006Z" fill="#262626"/>
      <path d="M104.111,32.386h-6.857v-4.725l1.123-.936c1.993-1.665,4.323-5.399,4.323-10.446s-2.327-8.784-4.319-10.442l-1.127-.936V.172h6.857l.884,.773c3.831,3.353,6.211,9.229,6.211,15.334s-2.38,11.984-6.212,15.334l-.883,.773Z" fill="#262626"/>
      <path d="M315.678,20.725V11.009H112.42s.592,10.689,.592,10.689l3.374-.482c.544-.077,1.063-.247,1.53-.491h197.762Z" fill="#262626"/>
      <path d="M319.119,30.539l-.656-2.528c-.257-.991-.61-2.078-.742-2.351l-2.027-4.191,4.611-.36c5.726-.355,8.289-1.632,8.289-2.74,0-.52,0-.807-1.165-.807h-.166c-1.718,.044-4.394,.664-7.458,1.747-.214,.074-.435,.159-.656,.243-.095,.037-.19,.072-.284,.107-.419,.377-.913,.67-1.446,.848l-3.022,1.013-3.153-10.073,3.542-.588c.705-.117,1.498-.309,2.358-.569,4.703-1.332,8.723-1.921,10.643-1.921,6.294,0,10.522,3.92,10.522,9.753,0,10.969-12.484,11.91-16.586,12.22l-2.604,.197Z" fill="#262626"/>
      <path d="M356.743,30.049c-3.088,0-5.601-2.537-5.601-5.656,0-1.238,.399-2.383,1.075-3.313l-.833-18.652h10.826l-.841,18.799c.614,.902,.973,1.993,.973,3.167,0,3.119-2.512,5.656-5.601,5.656Zm0-6.25c-.352,0-.649,.272-.649,.594,0,.343,.292,.621,.649,.621s.649-.278,.649-.621c0-.35-.342-.594-.649-.594Zm-11.552,6.25c-3.103,0-5.627-2.537-5.627-5.656,0-1.25,.409-2.406,1.101-3.341l-.831-18.624h10.825l-.84,18.799c.614,.902,.973,1.993,.973,3.167,0,3.119-2.512,5.656-5.601,5.656Zm0-6.25c-.364,0-.649,.261-.649,.594,0,.354,.28,.621,.649,.621,.349,0,.623-.273,.623-.621,0-.367-.323-.594-.623-.594Z" fill="#262626"/>
      <path d="M6.044,29.63l-1.872-4,.223-.149c1.251-.834,2.36-1.647,3.298-2.418v-5.618h-3.108v-3.678h6.896v9.109c1.571,2.579,4.539,2.579,9.424,2.579,1.867,0,6.562-.029,9.821-.3l.554-.046-.249,.498c-.375,.748-.86,2.241-1.017,3.131l-.043,.245-.248,.013c-1.968,.103-4.926,.165-7.91,.165-6.257,0-9.485,0-12.046-3.014-.973,.939-1.991,1.859-2.903,2.626-.018,.375-.22,.555-.533,.713l-.287,.144Zm16.714-4.237h-3.843v-2.283h-7.261v-3.32h7.261v-.585h-5.721V9.119h5.721v-.503h-6.754l-3.065,2.322-.178-.304c-.787-1.348-2.684-3.285-4.115-4.514l-.297-.255,3.038-2.245,.187,.148c1.389,1.096,3.253,2.834,4.252,4.204v-2.648h6.931V2.997l4.589,.225-.033,.327c-.045,.458-.382,.651-.714,.743v1.031h7.261v3.292h-7.261v.503h5.996v10.087h-5.996v.585h7.618v3.32h-7.618v2.283Zm0-9.124h2.18v-.723h-2.18v.723Zm-5.886,0h2.043v-.723h-2.043v.723Zm5.886-3.521h2.18v-.668h-2.18v.668Zm-5.886,0h2.043v-.668h-2.043v.668Z" fill="#fff"/>
      <path d="M46.316,29.574h-.271l-.038-.269c-.124-.87-.617-2.299-1.122-3.253l-.251-.475,.536,.016c1.202,.037,2.67,.055,4.364,.055,.458,0,.458-.072,.458-.375V9.056h-5.948v2.915h-3.823v3.756l3.922-.845,.369,3.417-4.29,1.162v6.141c0,3.423-1.524,3.971-6.418,3.971h-.266l-.042-.262c-.128-.793-.581-2.177-.991-3.021l-.228-.471,.522,.022c1.314,.055,2.717,.055,3.177,.055,.275-.018,.293-.037,.293-.32v-5.043l-2.512,.651c-.107,.27-.353,.47-.684,.543l-.292,.065-1.155-4.33,.335-.06c1.174-.209,2.695-.522,4.308-.856v-4.575h-4.181v-3.733h4.181V2.998l4.727,.223-.033,.327c-.046,.468-.383,.658-.741,.748v3.942h2.648v-3.053h15.779v3.871h-4.593V25.3c0,3.741-1.649,4.274-7.739,4.274Z" fill="#fff"/>
      <path d="M72.755,29.574h-2.988l-.088-.078c-3.19-2.817-5.25-8.004-5.25-13.217s2.061-10.398,5.249-13.217l.089-.078h2.988v.597l-.112,.094c-3.24,2.704-5.333,7.651-5.333,12.604s2.094,9.91,5.333,12.604l.112,.094v.597Z" fill="#fff"/>
      <path d="M75.9,29.664l-.135-.256c-.493-.933-1.477-2.106-2.338-2.789l-.42-.333,.497-.201c5.629-2.285,8.813-5.98,9.995-11.61h-9.668v-4.036h10.226c.133-1.863,.145-3.784,.157-5.646l.016-1.799,5.052,.317-.062,.345c-.049,.267-.226,.602-.769,.769-.024,1.96-.055,3.976-.217,6.013h10.811v4.036h-9.769c1.781,5.909,5.107,9.608,10.16,11.3l.509,.171-.399,.359c-.763,.685-1.819,2.145-2.327,3.079l-.132,.243-.256-.101c-4.821-1.882-8.109-5.251-10.295-10.568-1.847,4.866-5.245,8.335-10.369,10.591l-.266,.117Z" fill="#fff"/>
      <path d="M103.054,29.574h-2.987v-.597l.112-.094c3.24-2.704,5.333-7.651,5.333-12.604s-2.094-9.91-5.333-12.604l-.112-.094v-.597h2.987l.089,.077c3.19,2.792,5.25,7.98,5.25,13.218s-2.061,10.427-5.25,13.218l-.089,.077Z" fill="#fff"/>
      <path d="M141.815,17.913h-24.778c-.269,.308-.702,.47-1.049,.519l-.337,.049-.259-4.658h30.892s166.581,0,166.581,0v4.091H146.284s-4.47,0-4.47,0Z" fill="#fff"/>
      <path d="M321.251,27.557l-.066-.253c-.215-.833-.668-2.365-.964-2.932l-.222-.426,.48-.031c7.251-.449,10.928-2.316,10.928-5.547,0-3.267-2.781-3.619-3.977-3.619h-.166c-2.076,.052-5.06,.729-8.394,1.907-.228,.079-.474,.173-.721,.267-.309,.117-.62,.236-.898,.328-.162,.269-.433,.492-.723,.59l-.303,.101-1.33-4.25,.354-.06c.824-.137,1.736-.355,2.711-.651,4.371-1.238,8.158-1.801,9.828-1.801,3.557,0,7.71,1.818,7.71,6.941,0,7.494-7.982,8.962-13.986,9.415l-.26,.02Z" fill="#fff"/>
      <path d="M356.743,27.236c-1.537,0-2.788-1.276-2.788-2.843,0-1.553,1.251-2.816,2.788-2.816s2.788,1.263,2.788,2.816c0,1.567-1.251,2.843-2.788,2.843Zm-11.552,0c-1.553,0-2.815-1.276-2.815-2.843,0-1.553,1.262-2.816,2.815-2.816,1.537,0,2.788,1.263,2.788,2.816,0,1.567-1.251,2.843-2.788,2.843Zm13.418-7.206h-3.623l-.66-14.79h4.945l-.662,14.79Zm-11.552,0h-3.623l-.66-14.79h4.944l-.66,14.79Z" fill="#fff"/>
    </g>
  </g>
</svg>