<?xml version="1.0" encoding="UTF-8"?>
<svg id="Layer_2" data-name="Layer 2" xmlns="http://www.w3.org/2000/svg" viewBox="0 0 97.112 34.008">
  <g id="game_note_txt">
    <g id="game_note_txt_don_big">
      <path d="M9.935,32.166H0V1.584l11.018,.536-.197,2.36,2.383-2.036,.441,.371,3.366-2.815,2.009,1.721c1.286,1.102,3.013,2.809,4.006,4.299l1.562,2.344-6.418,5.311-.25-.369-.338,.286c.434,.215,.851,.427,1.245,.634l2.878,1.512-5.142,8.907-2.707-1.565c-1.037-.599-2.438-1.321-3.92-2.029v11.113Z" fill="#262626"/>
      <path d="M23.596,32.721l-6.493-9.132,4.13-1.274c8.361-2.581,14.041-7.306,16.883-14.044l1.616-3.832,3.231,2.619c.806,.652,1.835,1.226,2.736,1.712l2.567,1.385-1.206,2.657c-3.695,8.134-10.516,14.278-19.77,17.827-.37,.443-.829,.799-1.354,1.034l-2.339,1.049Zm6.774-14.827l-2.77-1.848c-1.659-1.107-4.61-2.514-7.175-3.423l-3.445-1.219L21.564,2.935l2.451,.759c3.12,.967,6.677,2.576,8.849,4.004l2.468,1.622-4.963,8.574Z" fill="#262626"/>
      <path d="M61.474,33.101h-6.866l-.886-.783c-3.823-3.379-6.199-9.25-6.199-15.324s2.375-11.943,6.198-15.323l.887-.784h6.866V5.612l-1.123,.937c-1.993,1.664-4.323,5.399-4.323,10.445s2.327,8.785,4.319,10.441l1.127,.938v4.728Z" fill="#262626"/>
      <path d="M60.545,34.008l-1.36-2.572c-.278-.526-.988-1.415-1.6-1.901l-4.194-3.329,4.962-2.014c3.54-1.437,5.828-3.373,7.184-6.191h-8.611V8.34h10.35c.021-.917,.028-1.852,.034-2.812l.05-4.814,11.162,.701-.627,3.456c-.098,.541-.337,1.121-.742,1.636-.011,.605-.024,1.216-.044,1.832h10.656v9.661h-8.414c1.58,2.912,3.827,4.797,6.886,5.821l5.089,1.704-3.994,3.585c-.453,.406-1.328,1.581-1.733,2.328l-1.316,2.422-2.568-1.003c-3.855-1.506-6.918-3.902-9.257-7.26-2.223,3.101-5.286,5.492-9.249,7.238l-2.662,1.172ZM73.511,1.813s-.004,0-.006,0h.006Z" fill="#262626"/>
      <path d="M90.018,33.101h-6.857v-4.725l1.123-.937c1.993-1.664,4.323-5.399,4.323-10.445s-2.327-8.785-4.319-10.441l-1.127-.938V.886h6.857l.884,.773c3.831,3.352,6.211,9.228,6.211,15.334s-2.38,11.984-6.212,15.334l-.883,.773Z" fill="#262626"/>
      <path d="M7.123,29.353H2.813V4.536l5.161,.251-.027,.323c-.023,.274-.165,.729-.824,.915v6.633l.261-.355,.219,.078c2.958,1.048,7.128,2.872,9.915,4.336l.288,.151-2.272,3.935-.27-.157c-2.07-1.196-5.356-2.781-8.14-3.93v12.637ZM14.999,12.093l-.195-.286c-.685-1.003-2.244-2.814-3.303-3.737l-.273-.238,1.99-1.7,.203,.17c1.104,.93,2.637,2.598,3.491,3.798l.167,.234-2.079,1.758Zm3.765-2.56l-.193-.285c-.634-.938-2.179-2.698-3.3-3.651l-.282-.24,2-1.672,.201,.172c1.177,1.008,2.714,2.551,3.495,3.723l.156,.234-2.077,1.719Z" fill="#fff"/>
      <path d="M24.551,29.211l-2.902-4.081,.413-.128c9.193-2.838,15.466-8.099,18.645-15.638l.162-.383,.322,.262c.994,.806,2.158,1.456,3.171,2.003l.256,.139-.121,.266c-3.499,7.701-10.105,13.471-19.111,16.694-.093,.302-.286,.621-.603,.762l-.234,.105Zm4.886-15.32l-.277-.185c-1.86-1.24-4.993-2.741-7.797-3.734l-.344-.122,1.919-3.545,.245,.076c2.892,.896,6.163,2.37,8.137,3.668l.247,.162-2.13,3.68Z" fill="#fff"/>
      <path d="M58.661,30.288h-2.99l-.089-.078c-3.187-2.817-5.248-8.005-5.248-13.217s2.061-10.398,5.248-13.217l.089-.078h2.99v.597l-.112,.093c-3.24,2.704-5.333,7.652-5.333,12.604s2.094,9.91,5.333,12.604l.112,.094v.597Z" fill="#fff"/>
      <path d="M61.807,30.379l-.135-.258c-.493-.933-1.477-2.106-2.338-2.789l-.42-.333,.497-.201c5.629-2.285,8.813-5.98,9.995-11.61h-9.668v-4.036h10.227c.132-1.85,.145-3.758,.157-5.605l.016-1.84,5.051,.317-.062,.345c-.049,.269-.226,.602-.769,.769-.024,1.962-.055,3.977-.217,6.014h10.811v4.036h-9.769c1.781,5.91,5.107,9.609,10.16,11.3l.509,.171-.399,.358c-.763,.685-1.819,2.145-2.327,3.079l-.132,.242-.256-.1c-4.821-1.883-8.109-5.252-10.295-10.569-1.847,4.866-5.245,8.336-10.369,10.592l-.266,.117Z" fill="#fff"/>
      <path d="M88.961,30.288h-2.987v-.597l.112-.093c3.24-2.704,5.333-7.652,5.333-12.604s-2.094-9.91-5.333-12.604l-.112-.094v-.597h2.987l.089,.078c3.19,2.791,5.25,7.979,5.25,13.217s-2.061,10.428-5.25,13.217l-.089,.078Z" fill="#fff"/>
    </g>
  </g>
</svg>